<svg xmlns="http://www.w3.org/2000/svg" viewBox="0 0 1172.16 1161.24"><defs><style>.cls-1{fill:#476fa7;}.cls-2{fill:#2574b3;}.cls-3{fill:#4fd334;}.cls-4{fill:#926f97;}.cls-5{fill:#219afe;}.cls-6{fill:#13ac00;}.cls-7{fill:#fe7e00;}.cls-8{fill:#fe9e40;}.cls-9{fill:#feb67f;}.cls-10{fill:#ac59b9;}.cls-11{fill:#ce37ed;}.cls-12{fill:#268e24;}.cls-13{fill:#c1c1c1;}.cls-14{fill:#6e5372;}.cls-15{fill:#66c257;}.cls-16{fill:#ad65b7;}.cls-17{fill:#c827ed;}.cls-18{fill:#7dc879;}.cls-19{fill:#7bea50;}.cls-20{fill:#306d9e;}.cls-21{fill:#369ff6;}.cls-22{fill:#6cac64;}.cls-23{fill:#42b935;}.cls-24{fill:#44bf31;}.cls-25{fill:#679cc9;}.cls-26{fill:#48cd00;}.cls-27{fill:#8d4697;}.cls-28{fill:#78b774;}.cls-29{fill:#cf1e18;}.cls-30{fill:#94b6d0;}.cls-31{fill:#249cfe;}.cls-32{fill:#3a86c3;}.cls-33{fill:#e64931;}.cls-34{fill:#e15245;}.cls-35{fill:#e14634;}.cls-36{fill:#e13631;}.cls-37{fill:#cb5049;}.cls-38{fill:#e15452;}.cls-39{fill:#e12f28;}.cls-40{fill:#e16759;}.cls-41{fill:#d758ed;}.cls-42{fill:#4d8cc1;}.cls-43{fill:#359d33;}.cls-44{fill:#47be3c;}.cls-45{fill:#3ea23c;}.cls-46{fill:#d043ed;}.cls-47{fill:#905c97;}.cls-48{fill:#8d0fa3;}.cls-49{fill:#b75ec5;}.cls-50{fill:#4dae4a;}.cls-51{fill:#36da00;}.cls-52{fill:#71afe2;}.cls-53{fill:#8cbce2;}.cls-54{fill:#d7f4d1;}.cls-55{fill:#00a400;}.cls-56{fill:#e13f46;}.cls-57{fill:#4a8c4b;}.cls-58{fill:#da4f43;}.cls-59{fill:#8a688f;}.cls-60{fill:#12a700;}.cls-61{fill:#446aa1;}.cls-62{fill:#743b7c;}</style></defs><title>Asset 1</title><g id="Layer_2" data-name="Layer 2"><g id="Layer_1-2" data-name="Layer 1"><path class="cls-1" d="M758,197.68l-1.15-.54c-2,.7-4.57-.54-6.13,1.75l-1.48,1c.1-2.64-3.9-3-3.28-6l1.09-2c.78-1.71,1.24-3.53,1.92-5.28l1.07-1.69c1-2.41,1.7-5,3.65-6.95,3.91-9.79,8.12-19.44,14.37-28a1.16,1.16,0,0,1,1.84-.17,9.19,9.19,0,0,0,3.17-5c1.19-.48,1.88-1.8,3.26-2,2-3.35,6.24-4,8.64-6.94,1.47-1,2.62-.2,2.08,1.1-1.79,4.31.89,6.9,3.23,9.62a9.85,9.85,0,0,1,2.22,9.24c-.17,3.39.13,6.79-.24,10.18a14.74,14.74,0,0,1-.54,2.25c-.42,1.2-.32,2.49-.66,3.71-.71,2.36-.62,4.88-1.34,7.24-.44,1.38-.27,2.85-.56,4.25a4.65,4.65,0,0,0,1.15,4.11c3.41,3.91,7.82,6.95,9.41,12.42.58,2,3.13,2,5.15.78,1.41-.82,2.81-2.74,4.57-.45-.09,1.2.44,2.49-.51,3.56a2,2,0,0,0-.84,2,4.18,4.18,0,0,1-.13,4l0-.07c-1.24,1.51.19,3.58-1,5.09l0-.1c-1.41,4.11-2.62,4.49-9,2.82-.77-1-1.87-.72-2.88-.77-1.64-.89-3.7-.74-5.18-2-3.29-2.2-6-5.25-10-6.35-2.93,2.35-5.95,2.38-9,.31l-9.86-8.72C761.76,197.16,758.41,199.31,758,197.68Z"/><path class="cls-2" d="M751.88,128l4.21-5a10.56,10.56,0,0,1,2-4.07c1-1.9,2.89-3.4,3-5.79,1.51-1,1.93-2.86,3-4.2l4-6.59A5.73,5.73,0,0,1,770.88,99c1.62-3,2.84-6.18,6.55-7.39,2.3-.75,1.44-3,1.67-4.66a1.85,1.85,0,0,1,1.79-.69c1.08.22,2,.78,3.08,1.1,1.3.17,2.6.23,3.9.35,2.87.12,3.87-2.1,5.19-4,1.05-1.52,1.26-3.92,3.85-4,2.87,2.57.81,6.19,2,9.13.46,3.09,4.26,3.1,5.26,5.67,1.58,3.07,4,1.68,6.24,1.15,4.93-.55,4.14,2.88,3.5,5.54-1.56,6.5-4,12.67-8.24,18a13.83,13.83,0,0,0-1.73,2.28c-3.05,5.15-8.35,7.72-12.87,11.19a41.34,41.34,0,0,0-5,4,38.1,38.1,0,0,1-9.18,6.55c-2.31-.4-1.77,1.88-2.63,2.85-1,1.76-1.65,3.78-4,4.22a15.86,15.86,0,0,0-5.13-1.21,9.08,9.08,0,0,1-1.25-.3,21.81,21.81,0,0,0-4.27-.83,10.67,10.67,0,0,1-1.26-.28,4.17,4.17,0,0,0-3.77.59c-1.78,1-3.72.37-5.57.56-1.87.42-1.5,2.15-2,3.39-1.09,3.57-2.48,6.75-7.21,5.71-1.41-.35-2.49-1.76-4.15-1.34-1.19.38-1.92,1.38-2.87,2.08-1.57,1.37-3-.31-4.55-.18-3.69-1.5-7.68-2.52-10.06-6.16,1.28-5.32,5.81-8.54,8.59-12.91,3.85-6.07,4.19-12.73,5.23-19.34.4-2.55-2.27-3.91-2.86-6.13l0,.08c2.15-1.52,2.76.51,3.77,1.63l6,1.31c4.51,1.84,1.61,6.26,3.19,9.12l1.76,1.89a35.19,35.19,0,0,0,4.24,2l-.07,0C750.24,131.16,751.41,130.25,751.88,128Z"/><path id="this" class="cls-3" d="M562.32,895.84l.89-2.15c1.43-.52,2.12-1.86,3.12-2.86l.67-.72c.82-1.56,2.16-2.74,3.06-4.24l-.06.06a6.87,6.87,0,0,1,5.85.14,41.65,41.65,0,0,0,3.22,3.06l.8.77a6.41,6.41,0,0,1,2.94,2.71l6.07,4.28c1.6.81,2.78,2.22,4.35,3.08l.79.83a3.61,3.61,0,0,1,.49,3.19c-.49,2.86,1.29,3.48,3.46,3.84a2.19,2.19,0,0,0,2.11-.82c1.75-1.46,4.24.28,5.94-1.38,2-.69,4.18.43,6.11-.74L612,905c2.51-1.47,5.58.5,8-1.32,1.55-.09,3.64-1,3.18,2a3.32,3.32,0,0,0,.69,3.28c1.39,2.46.37,5.12.62,7.67.16,1.6-.28,3.36,1.55,4.33l-.08-.05c1.82,1.43,4.36-.55,6.1,1.28a1.54,1.54,0,0,0,1.73.7c1.85.71,1.72,2.34,1.8,3.87a5,5,0,0,1,.47,5.11,2.08,2.08,0,0,0,.85,2.06c1.37,1.56-.1,3.73,1.13,5.32.21.62.85,1.28-.17,1.79-.82,3.32-3.45,3.7-6.25,4-10.38,1-20.9,1.44-31,4.3-11.85,3.37-24,3.23-36,4.36-8.35.79-16.65,2.64-24.9.26A224.27,224.27,0,0,1,518,946.4c-4.77-1.93-4.23-7-4.11-10.87s3.14-6.42,7-7.47c2.43-.67,5.47.32,6.93-2.84.16-.35,1.29-.56,1.83-.4,7.5,2.28,15.76.46,23,4.33a26.72,26.72,0,0,0,4.72,1.59c8.84,2.76,8.84,2.76,13.7-5,3.18-5.72,5-5.88,9.17-.73.62.77,1.29,1.48,2,2.19,1.47,2.26,1,4.69.63,7.13-.06.38-1.22,1.07.22,1.21a2,2,0,0,0,.49,0c.54-.09.76-.23.53-.88-1.46-4.25-1.24-8.68-1.38-13.07-.13-4-1.82-3.7-4.15-1.43a4.44,4.44,0,0,1-1,1c-3.2-.59-4.81,1.58-6.46,3.7-3.37,1.31-5.93,5-10.58,2.2-3.14-1.88-4.12-3.24-2-6.32a37.41,37.41,0,0,0,2.15-4.75,71.47,71.47,0,0,0-7,4c-3,2.22-5.9,2.22-9.26,1-3.63-1.31-6.8-2.22-1.79-6.07,1.45-1.12-1.2-4.72,2.5-5,2-2.5,5.62-2.56,7.66-5a18.69,18.69,0,0,1,3.54-2.93c1.85-.07,2.81-1.42,3.84-2.67C560.38,897.8,561.44,896.88,562.32,895.84Z"/><path class="cls-4" d="M1055.9,529.9l-4.79,5.11c-2.38.87-3.05,3.25-4.43,5-5,3.16-10.07,6.07-15.08,9.14a17.45,17.45,0,0,0-6.29,3,45.66,45.66,0,0,1-15.11,6.12,22.16,22.16,0,0,0-9.71,2.89c-4.84,1.86-9.5,4.53-15,3.49-2.68-.71-4.64,1-6.75,2.1a16.25,16.25,0,0,1-2.39,1.24,16.9,16.9,0,0,0-4.21,2.14A110,110,0,0,1,959.57,575a14.38,14.38,0,0,0-5.13,1.76,20.12,20.12,0,0,1-3.16,1.22,15.25,15.25,0,0,0-4.94,1.8,19.29,19.29,0,0,1-3.12,1.21,15.21,15.21,0,0,0-4.95,1.83,19.43,19.43,0,0,1-3.21,1.25c-2.11.3-4,1.24-6.1,1.71a4.52,4.52,0,0,1-2.18-.15c-1.49-.65-2.07-2-2.63-3.38a25.28,25.28,0,0,0-3-6.86c-1.25-2.34-2.66-4.6-3.93-6.93-1-2.49-3-4.09-4.94-5.83s-2.53-4.06-3.47-6.27c-.53-1.85-1.52-3.56-1.61-5.54l0,.07a9.32,9.32,0,0,1,0-6.94c1.26-4.8-1.06-8.51-3.69-12.12-1.82-2-4-3.62-5.37-6-5.58-5.74-6.69-13.67-10-20.5l-1.69-3.48c-1.46-1.86-.78-3.89-.46-5.88a3.39,3.39,0,0,0-.77-3.17c-1-1.58-.6-3.21-.2-4.85-1.07-1.89-.3-4.31-1.76-6.08-.21-2-2.46-4.7,1.79-5.15l1.1.09q.84-.68,1,.38c1.91,1.22,4.06.46,6.08.74,2.75.65,3.52,2.42,3.46,5.15s-.69,5.28.45,7.83l0-.08c1.44,2.32,3.18,3.6,5.84,1.67.7-1.55,1.18-3.29,3.22-3.65l-.06,0c4.42-1.41,3.66-4.77,3-8.08l.91-.95c1.61.9,3.53,1.05,5.08,2.1a6,6,0,0,0,4,1.9c1.59.93,3.53,1,5,2.13l2,.88c2.14,1.41,4.75,1.19,7.06,2l-.09,0c5.48,1.22,11,.15,16.53.55a37.52,37.52,0,0,0,7.72,1c4.64-.13,9.3.34,13.92-.4,2.34.44,3.58-2,5.68-2.19q2.75-.91,5.47-1.87l22.6-8.13c1.59-1,3.62.28,5.17-1l-.1,0c1.48-1.18,3.47.2,5-1,3.75-.32,7.25-1.27,10.16-3.82,1-1.39,2.67-1.4,4-2.17,3.35,1.54,4.72,5.34,5.79,7.89,2.51,6,6.18,11.83,6.17,18.72-.71,1.48-.05,3.73-2.4,4.29-1.09.87-1.73,1.83-.6,3.14l-.06-.08c.17,2.81-2.63.76-3.38,2.06,2.7,5.85,7.57,9.58,12.71,13.06,1.89,1.28,3.73,2.62,5.59,3.93,1.15.31,1.67,1.25,2.19,2.19l2.8,1.79C1058.77,528.94,1056.78,529.05,1055.9,529.9Z"/><path class="cls-5" d="M732.24,157.95c1.08-.85.49-3.19,2.7-3,1.15,1,3.21-.05,4,1.8,5.13,1.49,5.88-2.47,7.16-5.77.77-1.36.86-3.11,2.3-4.1,1.92-.56,3.71,2.13,5.67.22,1.65-1.13,3.35-.82,5.06-.15l-.09,0c1.51,1.27,3.57-.17,5.09,1l-.09,0c1.23,1.31,3.52-.41,4.5,1.58.35,3-2,4.72-3.2,7-3.61,7.2-7.05,14.49-10.79,21.62a15.31,15.31,0,0,0-3.39,6.91,11.31,11.31,0,0,1-1.12,2.36,12.67,12.67,0,0,0-1.94,4.73,9,9,0,0,1-1.23,2.41c-.78.78-1.33,2-2.82,1.39l.07,0c-3.25-1.47-6.85.41-10.1-1l.12,0a112.73,112.73,0,0,0-24.12,0l.12,0a19.09,19.09,0,0,1-10-.05,23.82,23.82,0,0,1-6.29-4.3,1.47,1.47,0,0,1,.12-1.36c4.27-8,10-15.22,13.45-23.67,2.27-5.53,7.47-8.58,10.76-13.22l10.52,5.6C729.84,158.81,731,159.94,732.24,157.95Z"/><path class="cls-6" d="M705.89,571c5.12,5.32,11.5,9.11,17.05,13.9,1.32,1.14,4.11,1.69,1.5,4.21a1.1,1.1,0,0,0-.21.43c3.67,2.08,1.78,7,4.75,9.37,3.57,2.85,7.14,5.72,10.92,8.26,1.54,1,2,1.95.95,3.24-1.71,2.07-.93,3.67.89,4.75,6.21,3.69,6.55,9.79,7.93,16,1,4.62,5.14,8.55,7.87,12.79,1.88,1.87,1,4,.46,6l-3,3a8.13,8.13,0,0,1-6,0c-2.39-4.12-3.85-1-5.5.7-6.28-1.78-10-7.3-15.39-10.47-4.37-2.58-8.15-6.17-12.19-9.31-1.05-.79-2.54-.17-3.56-1.08-1.33-1-2.42-2.31-3.84-3.21a15.7,15.7,0,0,0-3.75-2.55c-13.27-8.55-25.39-18.69-38.26-27.78a5.31,5.31,0,0,1-2-2.2,1.83,1.83,0,0,1,.57-2c9.44-3.31,19-6.29,27.6-11.65,2.84-1.77,5.64-3.41,7.46-6.3.52-1.9,2.15-2.84,3.5-4Z"/><path class="cls-7" d="M252.33,1022.76c-5.27,2.06-8.44,6.45-11.86,10.58a4.32,4.32,0,0,0-.94,4.1c1.49,7-.33,11.91-6.7,14-6.84,2.29-10.81,7.8-15.88,12-6.13,5-11.52,10.69-19.92,12.25-3,.56-5.62,3.37-8.33,5.27-3.36,2.36-5.93,5.23-11,5.31-3.92.06-7.09,4.57-10.11,7.64-1.68,1.71-2.77,2.52-5.19,1-6.36-3.94-10.62,1.09-14.9,4.36s-7.27,7.85-10,12.35c-2.11,3.47-5.06,6.07-7.45,9.19-2.77,3.61-10.15,1.7-11.93-3.28-1.13-3.15-2.64-3.25-5.21-2.64-3.39.8-6.85,1.28-10.22,2.14-3.82,1-6.92,2.84-8.5,6.87-1.52,3.87-3.63,7.39-7.92,9.07-2.1.82-3.06,3-4.15,4.87-2.08,3.5-5.34,4.3-9,5.35-6.46,1.84-13.14.39-19.45,1.94-7,1.72-14,3.82-19,9.79-.73.88-1.28,2-2.67,2-5-.05-9.89-.34-13.93,3.75-1.11,1.13-3.47.3-4.87-1.29a89.94,89.94,0,0,1-10-13.89c-2.85-4.85-3.3-10-3.2-15.35,0-.65-.07-1.61.3-1.9,5.19-4.14,4.13-11.21,7.47-15.93,1.87-2.65,4.28-6.56,9.2-5.79,2.57.4,4.1-2.75,4.34-4.1.55-3,2.13-2.95,4.15-2.62,3.18.52,4.75-2.14,6.68-3.6,2.25-1.72-.74-3.41-1.59-3.54-3.75-.59-2.89-3.35-3.73-5.75-2.7-7.71.43-14.45,2.46-21.46,1.48-5.11-1.52-13-6.34-15.23-2.18-1-2.36-2.06-1.8-3.73,1.86-5.47-.42-10.06-3.38-14.22-1.1-1.54-1.12-2.35-.49-3.84,1.49-3.51,4.29-5.88,7-8.38.55-.52,1.17-1.42,2-.54,2.06,2.08,3.17.09,4.5-1,2.72-2.19,5.38-4.45,8.19-6.52.83-.62,2-1.08,1.75-2.15-.86-4.62,2.89-5.68,5.58-7.73,7.32-5.58,14.91-9,24.46-5.73,3.11,1.06,6.83.73,10.2,1,3.11.22,6.42-2.29,8.09-5.77,2.44-5.08,4.46-10,5-16,.6-6.95,3-13.79,5.1-20.53,1-3.17,3-5.24,7.43-4.54,8.81,1.4,13-1.28,15.38-13.55.18-.93-.22-2,.58-2.77,5.27,1.16,9.28,5.51,14.95,5.75,1.11,0,.67,1.65.73,2.59,1.72,1.75,1.2,4,1.34,6.06a3,3,0,0,0,0,.94c.2.55.06.49.12-.07.25-2.43-1-5.28,1.91-7,2.23.26,2.94,2.22,4.12,3.66,1.66,2.73,3.61,5.17,6.64,6.51,2.07.89,3.41,2.8,5.36,3.86a11.17,11.17,0,0,1,1.14.68,9.74,9.74,0,0,1,3.68,3.79,6.57,6.57,0,0,1,.49,1.25c.36,1.28.3,2.65.77,3.91a9.38,9.38,0,0,1,.33,1.27,11.86,11.86,0,0,0,.89,3.69,18.9,18.9,0,0,0,1.34,2.1c1,1.63,2.79,1.69,4.39,2.1,5.87,3.31,11.62,7,18.88,5.43,1.17-.75,1.2-2,1.52-3.19a10.19,10.19,0,0,0,.45-2.62c.13-1.94-.16-3.92.54-5.8a7.49,7.49,0,0,1,1.28-1.81,52.5,52.5,0,0,1,7.35-4.47c2.89-1.49,5.94-2.67,8.82-4.2a37.29,37.29,0,0,1,7.11-3.38c3.42-2,7.25-2.72,11-3.58,2.69-1.29,5.68-1.05,8.49-1.73a9.26,9.26,0,0,1,1.39-.34c2.08-.34,4.25,0,6.27-.79,1.81-.5,3.74-.21,5.52-.87a9.22,9.22,0,0,1,1.37-.34c2.07-.31,4.23,0,6.23-.85,5.27-1.44,10.29-3.36,14.39-7.15a3.14,3.14,0,0,1,3.14-1c1.73.83,3.69.66,5.47,1.27a5.54,5.54,0,0,1,2.75,2.22c.66,1.49,1.15,3,1.87,4.52a5,5,0,0,1,.12,1.4,19.14,19.14,0,0,1-2.47,7.91,6.5,6.5,0,0,1-3.06,3.19c-.35.23-.82.4-.51,1,.25.25.48.49.72.73a16.61,16.61,0,0,0,2.27,1.79,19.61,19.61,0,0,1,2,1.52,17.4,17.4,0,0,0,2.95,2.38,9.07,9.07,0,0,1,1.06.72,15.23,15.23,0,0,0,3.67,2.53,6.9,6.9,0,0,1,1.51,1.2,12.34,12.34,0,0,0,2.68,2.56,14.87,14.87,0,0,0,2,1.2c.84.19,1.28-.33,1.67-1,1.25-1.79,2-4.06,4.58-4.47,1.67.23,2.69,1.62,4.13,2.27a105.6,105.6,0,0,1,9.52,6.25,13.44,13.44,0,0,0,3.62,2.71,16.3,16.3,0,0,1,4.38,3.14c.76,3.74-2.25,5.65-4.05,8.07-3.26,4.39-7.53,7.86-11.21,11.87l-1.38,2.05c-1.64,1.75-4.25,2.64-4.5,5.62a1.89,1.89,0,0,1-2.66,1.51c-2.55-.84-4.49.54-6.56,1.55a4.4,4.4,0,0,1-3.46-.67,10.86,10.86,0,0,1-3.86-4.46c-3.19-6.16-9.2-9.45-14.12-13.83-1.84-1.64-3.47-.48-4.67,1.06A95.47,95.47,0,0,1,252.3,1013c-2.64,2.07-3.61,4.27-.89,7A3.08,3.08,0,0,1,252.33,1022.76Z"/><path class="cls-8" d="M292,971.77l-.72-.77c-1.57-.89-2.75-2.33-4.41-3.09l-1-.31a6.34,6.34,0,0,0-3.1-2.75l-2.4-2.05a8.07,8.07,0,0,0-2.3-1.86l0,0c-.56-.85-.65-1.61.38-2.18l2.67-2.92c2.29-2.19,2.92-5,3-8q0-.45,0-.89c-1-1.12-.74-2.89-1.88-4l-2.08-1.91c-1.77-1.7-4.29.25-6.09-1.26-5.08,4-10.29,7.71-17.08,8.1-2.16,1.3-4.76-.39-6.89,1l.09,0c-2.15,1.31-4.85-.42-6.94,1.23-2,.81-4.23-.45-6.15.82l.09,0c-3.13,1.18-6.84-.39-9.69,2.05-3.56.67-7.43.47-10.11,3.62L210,959.91c-1.44.6-2.54-.52-3.83-.72a25.48,25.48,0,0,0-10.38.95c-1.83.91-3.86,1.13-5.76,1.79-3,2.52-6.52,2.26-10.18,2.65-6.13.65-8.32-2.75-10.83-7.16a23.42,23.42,0,0,0-12.49-10.25c-3.81-1.42-5.64-4.29-7.06-8.57,5.63,1.31,9.46-.75,12-5.26,1.31-2.33,2.78-.41,4.42-.18-1.55-5.54-2.85-11-5.77-15.85-1.69-2.82-1.43-4.5,2.1-5.2a15.33,15.33,0,0,0,6.06-2.68l-7.19-.76c5.16-2.95,7.82-7.18,12.7-8.8a6.64,6.64,0,0,0-6.87.39c-1.62,1.06-3.43,4.18-5.28.22-1.38-3-2.47-5.9,1.17-8.29,1.23-.81,3-.41,4.06-2.27-2.82-2.08-5.15,0-7,1.27a6.82,6.82,0,0,0-2.46,7.58c1.58,4.91,2.18,9.07-2.25,13-1.72,1.52-1.62,4.22-.22,6.5,1.3,2.13,2.34,4.41,3.61,6.56s2.16,4.45.45,6.5c-1.91,2.28-4.22,4.38-7.71,3.56-4.46-1.06-8.75-1.32-13.09.9-2.44,1.25-4.83.28-6.47-2.14a8.27,8.27,0,0,0-7.59-3.8c-5.47.09-10.69-2.31-16.27-1.93-2.55.17-2-1.51-1.25-3,2.75-5.29,4.34-10.67,2.52-16.72-.84-2.8.11-5.48,1.84-8,3.58-5.19,7.67-10,10.79-15.57a22.05,22.05,0,0,0,2.43-8.88c.12-1.15-.24-2.6.33-3.41,4.08-5.73,1.39-10.59-1.53-15.61-2-3.38-.16-6.21,2-8.81.66.46,1.48.32,2.2.57-.32-.59-1-1-1.08-1.69-.82-2.6.42-4.94,1.1-7.28,1.91-6.5.43-9.5-6-10.64-3.46-.62-4.73-2.75-5-5.75-1.15-11.58-2-23.18.66-34.69,1.42-6.05,6.23-8.86,11.17-11.51,4-.49,6.14,2.86,8.92,4.68a256.13,256.13,0,0,1,21.38,15.16,20.07,20.07,0,0,0,4,3.43,11.85,11.85,0,0,1,2.34,2.33,17.42,17.42,0,0,0,3.36,3.94c3,3,6.07,6,10.7,6.33,1.87.92,4,1,5.92,1.69a48.11,48.11,0,0,1,14.61,8.44,32.67,32.67,0,0,0,5.35,4.37c6.13,5.52,11.73,11.58,17.62,17.34,3.12,3,6.54,5.54,10.95,6.35,4.78,1,9.6.26,14.39.44a12.07,12.07,0,0,0,4.78-.74c3.26-.4,6.54-.15,9.8-.25a10.22,10.22,0,0,0,3.75-.58c1.87-.46,3.86-.17,5.68-.95,2-.46,3.92-1.44,6-1.68,2.12.34,3.93-.58,5.76-1.43,3.22-1.12,6.42-2.29,9.71-3.21,3.06-.82,6.12-1.24,9.21-.18,1.82.36,3.58.95,5.38,1.38,4,1.25,8.08.43,12.11.65a14.6,14.6,0,0,0,5.71-.79,122.53,122.53,0,0,1,14.45,0,39.11,39.11,0,0,1,10,4.15,36.27,36.27,0,0,0,7.11,4.11c.79.39,1.57.8,2.36,1.2a14.06,14.06,0,0,0,5.55,1.79,12.21,12.21,0,0,1,1.36.3c3.84.77,7.73,0,11.57.48a9.47,9.47,0,0,1,1.43.28c1.56.68,3.29.59,4.9,1.05,5.26,1.71,10,4.55,15,6.87a30.12,30.12,0,0,0,6.43,3c2.12.9,4.1,2,5.21,4.16a5,5,0,0,1,0,3.72c-2.81,2.7-2.42,5.41-.24,8.35,2,2.64,2.63,5.54-.28,8-10.17,8.61-16.63,20.25-24.8,30.47-7.1,8.88-14.4,17.4-24,23.61a46.66,46.66,0,0,0-14,14.62c-2.78,4.36-4.28,4.69-8.51,1.69-6-4.23-12.2-8.07-17.95-12.49,0,.05-.27,0-.27,0a2.49,2.49,0,0,0,.17.4c2.7,2.89,2.13,5.43-.83,7.59s-2.37,3.84.42,5.62c3.5,2.23,7.13,4.26,10.52,6.68,2.83,2,3.59,4.51,1.32,7.18s-2.62,7.41-7.47,7.58c-2.34.66-3.16-2-5-2.32a6.41,6.41,0,0,0-3.76-3l-9.75-6.79a5.45,5.45,0,0,0-2.65-1.91l-3.55,4.82c-.82,1.08-1.57,2.37-3.23,1.17l-2-1.23A8.49,8.49,0,0,0,292,971.77Z"/><path class="cls-9" d="M198.89,823.92c-5-2.79-9.39-6.51-15-8.16-1.34-2.61-4.29-.37-6-2-5.33.55-7.94-3.37-10.92-6.67a18.21,18.21,0,0,0-3.25-4.22l-1.74-1.74a20.74,20.74,0,0,0-4.16-3.25l-29.84-21a16.64,16.64,0,0,1,4.61-8.34c4.83-4.79,9-10.25,14.23-14.66,1.39-1.17,2.37-3.05,4.5-1.16.51.45.92.42,1.55-.24,3.71-3.89,6.74-3.37,9.39,1.52.42.77,1.16,1.87,1.7,1.41,1.82-1.58,5.11-.65,6-3.58.37-1.2,0-3,2-2.82,1.61.12,2.53,1.22,3.16,2.77,1.67,4.12,4.32,6.68,9.31,6a8.31,8.31,0,0,1,6.77,2.67c1.49,1.45,2.74,3.75,5.15,1a1,1,0,0,1,1.59.92c-1.4,5.49,3.77,5.18,6,5.68,3.75.83,7.57,1.4,11.27,2.56a1.78,1.78,0,0,0,1,.06c2.92-.9,5.83-1.83,8.74-2.76,1.62.31,1.21-1.53,2.12-2,4.6-1,9.13-.82,13.83-3.05,5.63-2.68,12-5.58,19-4.16a16.76,16.76,0,0,1,4.07,1.52c5.77,2.78,11.62,4.52,17.32-.3a3.35,3.35,0,0,1,2.79-.62,16.44,16.44,0,0,0,14.1-4.46c7.58-7.51,16.83-8.48,26.37-6.79,10.54,1.87,19.78-.89,28.45-6.13,7.54-4.56,20.19-3.57,26.52,2.78a45.82,45.82,0,0,0,5.41,5.14c2.28,1.65,6.33,3.52,1.19,6.76-.36.22-.32,1.2-.33,1.82-.24,14.66-.36,29.33,1.33,43.93.59,5.11,3.33,9.44,6.45,13.31a72.58,72.58,0,0,0,10.24,10.54c5.84,4.81,7.68,12.07,11.76,17.94,1.63,2.34,4.38,4.28,4.39,7.63-3.33,5.21-9.34,6.63-14,9.91a2.19,2.19,0,0,0-1.62,2.75c-1.5,4.33-3.65.08-5.47.43l-14.85-6.74c-1.38-1.71-3.6,0-5.09-1.26l.1,0c-4.61-1.51-9.48.35-14.1-1l.08,0c-2-.85-4.22-1-6.15-2l-1.86-.7c-2-2.13-4.91-2.73-7.24-4.29l-8.73-3.77c-5.45-1.54-11-.59-16.47-.5-1.73.36-3.53.2-5.24.73-4.13-.22-8.29.58-12.39-.47l-5.09-1.13c-3-2.42-5.88-1.27-8.8.08-3.24,1.36-6.44,2.83-10,3-1.71.38-3.15,2.08-5.14,1-1.88,1-3.67,2.23-6,2-1.75,1.42-4.16-.59-5.86,1.13a3.51,3.51,0,0,1-3.25.75c-3.48-.81-7-.22-10.51-.35-.11,0-.31.09-.32.16a1.39,1.39,0,0,0,.1.47c-1.28,1.08-2.78.86-4.27.73-5.29-1.17-10.74.43-16-.89-4,0-6.79-2.58-9.34-5-6.33-6-12.34-12.42-18.47-18.66A26.73,26.73,0,0,0,198.89,823.92Z"/><path class="cls-10" d="M877.08,411.94c-4.08,1.25-7.83,4.17-12.56,1.19a8.49,8.49,0,0,1-4.16-5.09c-2.35-7.68-2-15.47-1.49-23.31.36-5.17-2.65-10.1-1.06-15.42.4-1.34-1.21-1.3-2.15-1.28-2.14,0-4.28-.17-6.41.64-1.74.67-2.95.47-4.37-1.64-1.61-2.38-5.15-3.15-6.16-6.61-.75-2.58-.44-3.35,2.26-4.33,3.11-1.13,6.25-2.4,9.94-3.51-4.83-2.32-5.24-4.1-1.72-7,1.74-1.41,1.9-2.36.65-4a4.44,4.44,0,0,1-.21-5.54c1.64-2.09,3.27,0,4.82.64,2.48,1,4.6,2.26,4.78-2.3a3.93,3.93,0,0,1,6.57-2.65c4.11,4.19,6.76.88,9.32-1.55,3.41-3.24,5.31-3.14,6.49,1.42,1.09,4.2,4.59,8.27,1,13.09a3,3,0,0,0,3.36,4.26c1.29-.16,2.79.85,4.09,1.52,3.32,1.71,5,1,4.85-3-.08-2,.19-3.83,2.68-4.71,6.27-2.2,7.73-4.41,5-10.33-2.23-4.76,3.15-5.84,3.42-5.8,5.14.91,7-3.24,9.6-6,2.76-3,4.9-4.7,8.3-.72,2.67,3.13,7.53,7.19,9.71,6.85,5-.79,8.8,2,13.24,2,2.91.05,5.63.94,8.78.5,5.84-.81,11.18,2.26,16.66,4,2,.63,1.77,2,1.29,3.62-1.11,3.73-.09,7.2,1.36,10.65,1.24,3,3,3.55,5.2,1.15,2.38-2.63,5.22-3.1,8.55-2.9a19.09,19.09,0,0,0,10.19-1.71c3.72-1.9,5.46-5,4.4-8.88-.39-1.43-3.38-2.81-.44-4.47,2.72-1.54,5.55-3.62,8.77-1.5,1.62,1.06,3.45,2.56,4,4.26,1.42,4.08,5.22,7.26,4.57,12.11-.06.42.42.89.53,1.36.4,1.78,3.6,2.91,1.64,5.1a6.54,6.54,0,0,1-7.88,1.82c1.67,5.87,6.35,9.73,8.27,15.06-1,5-5.91,6-9,8.9a25,25,0,0,0-5.17,3.2,20.38,20.38,0,0,1-7.7,3.05,10.09,10.09,0,0,0-5,1.22,9.86,9.86,0,0,1-1.19.49,10.66,10.66,0,0,0-4.45,2.41c-3.16,1.94-6.92,2.28-10.19,3.91-1.82.86-1.79,2.32-1.26,3.93a9.34,9.34,0,0,1,.33,1.35,16.58,16.58,0,0,1,0,4.93,9.79,9.79,0,0,1-.29,1.41c-.76,2.61-.25,5.29-.41,7.93a11.42,11.42,0,0,1-.33,2.2c-1,2.58-.46,5.34-.84,8a10,10,0,0,1-.29,1.43,12,12,0,0,0,.16,7.74c.6,2.72-.13,5.58.91,8.25a7,7,0,0,1,.3,1.55c.24,3.32,0,6.23-2.72,8.93-2.36,2.32-1,5.92-1,9a19.82,19.82,0,0,1,0,4.15c-.38,3.32,0,6.67-.27,10a7.59,7.59,0,0,1-1.92,4.17c-1,1.14-2.49,1.91-3.13,3.43-.16.4-.34.78-.51,1.17-1.22,2.35,1,4.1,1.09,6.22a3.68,3.68,0,0,1-.34,1.52c-3.66,3.37-8.14,1.23-12.2,1.83-2.58.17-5-1.23-7.54-1-5-.07-10.07.09-15.09-.1a8.42,8.42,0,0,1-1.56-.23,44.63,44.63,0,0,0-7.13-1.83,7.14,7.14,0,0,1-2.58-1.11,7.54,7.54,0,0,0-4.78-1.94,9.54,9.54,0,0,1-4.27-2,6,6,0,0,0-3.2-1.7,1.38,1.38,0,0,0-1.16,1c.27,2.78-.33,5.17-2.9,6.7a9.51,9.51,0,0,1-1.11.73c-1.37.48-1.93,1.79-2.82,2.77-2.55,2-4.68,1.22-6.59-1a5,5,0,0,1-.68-1.34,28,28,0,0,1-.36-6.88c0-2.34-.82-3.83-3.4-3.81-2.18-.22-4.47-.14-5.92-2.26a9.88,9.88,0,0,1-.44-5.74,33.4,33.4,0,0,0,1.63-5.84c.46-4.61.38-9.08-3-12.81-2-2.43-2.84-5.58-4.8-8,1.8-5.24,3.71-10.45,5.36-15.74,1.93-6.19-.52-12.54-6-16.27C878.51,412.34,878.25,411.2,877.08,411.94Z"/><path class="cls-11" d="M969,487.9l-.15-1.08c-1.1-1.87-2-3.75-.82-5.94l0,.05a41.29,41.29,0,0,1,3.21-4l1.84-2.93a28.4,28.4,0,0,0-.06-11.61q0-1.46,0-2.93c1-2.4.4-4.91.5-7.37.08-1.85.25-2.82,2.46-3.93,3.25-1.64,1.4-5.37,1-8.28l0,.1c-1.08-2.82-.22-5.77-.56-8.65a11.27,11.27,0,0,1-.44-8.45l0,.1c1.39-2.9-.3-6.14,1-9l.07-2.12c1.25-2.88-.39-6.07,1-8.94l0,.09a7.84,7.84,0,0,0,0-6.08l0,.09c-.73-2.17-1.29-4.32,1-6l11-3.77c1.44-1.31,3.49-1.26,5.06-2.27l-.07,0c1.64-.87,3.49-1.19,5.14-2,2.94,0,5.26-1.78,7.86-2.77,1.63-1.26,4-1.38,5.23-3.24l9.47-7.84a13.48,13.48,0,0,1,6.2,8.12c2.88,11.28,10.73,19.22,17.29,28.14,2.93,4,6.16,6.48,10.73,7.65,2.18.3,1.74-.79,1.07-2-2.13-3.83.16-8.28-1.7-12.16-.08-.17.19-.7.41-.8,6.54-2.87,2.95-7.38,1.62-11.23-1.68-4.84,1.56-15.86,5.69-18.8,1.56-1.11,2.26-.41,3.34.43,2.09,1.62,4.26,3.13,6.39,4.69,10.65,9.83,22.57,18.07,33.81,27.16,10.72,8.67,21.72,17,31.95,26.27a14.82,14.82,0,0,1,1.74,2.33c.11,2.24-1.86,2-3.1,2.59a9.87,9.87,0,0,1-1.18.41,7.86,7.86,0,0,0-3.25,1.55,10.6,10.6,0,0,1-1,.71,6.74,6.74,0,0,0-3.41,4.26,8.42,8.42,0,0,1-1.23,2.3,21.79,21.79,0,0,0-3.09,5.64,10.22,10.22,0,0,1-3.16,3.29,8.28,8.28,0,0,0-3.79,3.14,7.62,7.62,0,0,1-.86,1,6.12,6.12,0,0,0-2.69,5.51c-1.26,5.44-3,10.62-7.35,14.52a31.19,31.19,0,0,0-5.44,5,28.09,28.09,0,0,1-7.14,5.22,6.77,6.77,0,0,0-4.41,4.59,29.13,29.13,0,0,1-7.15,10.2c-3.29,2.87-6.63,5.68-9,9.42a12.79,12.79,0,0,1-2.15,2.66,69.59,69.59,0,0,0-8.06,8,7.35,7.35,0,0,1-3.42,2.39c-2.58.46-4.64,2.47-7.38,2.44-6.53-3.1-12.5-7-16.92-12.81-1.12-1.47-3-2.91-1.74-5.26.72-.77,1.94-.81,2.53-1.77.13-.38.27-.74.39-1.12a5.94,5.94,0,0,1,1.62-2.58c1.12-.9,1.13-2.14,1.06-3.41-2.1-9.05-4.73-17.86-11.21-24.92-1.58-.56-2.29.68-3.18,1.53-2.75,2.66-6.24,3.49-9.87,4-1.6.12-3.23-.17-4.79.41a9.81,9.81,0,0,1-1.33.34,10.72,10.72,0,0,0-4.58,1.32c-7.53,2.38-14.56,6.14-22.28,8a8.83,8.83,0,0,0-5.33,1.63c-2,1-3.81,2.41-6.23,1.79C969.54,490.44,969.79,488.81,969,487.9Z"/><path class="cls-12" d="M727.1,795.83c6.3,3.65,11.72,8.5,17.38,13,3.78,3,7.62,5.59,12.52,6.18a4.69,4.69,0,0,1,1,1.51c1.19,4.42.09,9,.78,13.41.57,10.62.2,21.11-4.49,31l-.08,2c1,2.79-.64,4.74-2.14,6.69-2.36,3.06-5.55,5.08-8.87,7-6.25,3.57-8.91,9-7.84,16.14a45.55,45.55,0,0,1-.11,9.66,15.75,15.75,0,0,1-4.34,7.14c-1.22,1.09-2.49,3-4.55,1.14.46-5.23,2.16-10.41.65-15.72a99.62,99.62,0,0,0-7.15-14.6c-2.91-4.87-8-6.24-12.48-8.56-1.42-.73-2.55.23-3.4,1.34-2.55,3.31-5.23,2.75-8.11.43-1.94-1.57-4.16-2.94-5.24-5.22-1.91-4-3.79-3.35-5.93-.3a3.34,3.34,0,0,1-1.28.61l-.71,0-.7-.12a31,31,0,0,1-5.67-2.56,9.32,9.32,0,0,1-3.22-3.51c-.56-1.69-1.86-2.92-2.73-4.42a53.44,53.44,0,0,0-2.4-5.27,10.8,10.8,0,0,0-3.74-3.92,7.89,7.89,0,0,1-2.17-2.53c-.58-1.78-2.09-2.82-3.26-4.13-1.14-1.63-1.32-3.58-1.82-5.42a36.87,36.87,0,0,1-.41-5c-.73-2.23-.7-4.59-1.25-6.85a9.21,9.21,0,0,1-.32-1.32c-.39-1.95,0-4-.67-5.9a8.83,8.83,0,0,1-.32-1.28c-.38-1.92,0-3.92-.7-5.8a8.91,8.91,0,0,1-.32-1.28c-.37-2,0-4-.76-5.92a9.35,9.35,0,0,1-.33-1.34c-.26-2.08-.18-4.2-.62-6.27a3.73,3.73,0,0,1,2.09-3.39c1-.68,2.42-.56,3-1.91a3.29,3.29,0,0,1,1-2.2,18.83,18.83,0,0,1,3.72-1.35c1.5-.37,3.08-.45,4.43-1.32,7.2-1.3,12.25-6.4,18-10.25,4.82-3.23,9.44-6.77,14.53-9.59A44.16,44.16,0,0,0,708,756c3.38-4,6.62-8,11-11a16.23,16.23,0,0,0,4.27-3.83,10.33,10.33,0,0,1,2.41-2.22,10.79,10.79,0,0,0,3.6-2.75,20.31,20.31,0,0,1,3.24-3.13,10.15,10.15,0,0,0,3-2.14c1.57-1.43,2.7-3.33,4.69-4.3a13.36,13.36,0,0,0,4.28-3.75c2.93-2.45,4.38-6.27,7.71-8.35,3,.67,3.34,3.28,4.09,5.6.57,1.78,1,3.43,3.7,2.47,6.14-2.17,6.18-2,9.7,3.35.81,1.24,1.65,2.46,2.35,3.76.81,1.86,2.34,3.12,3.74,4.5a41.84,41.84,0,0,1,4.4,5,32.48,32.48,0,0,0,4.46,4.9,27.38,27.38,0,0,1,2.52,3.1,23.18,23.18,0,0,0,3.44,3.89,22.83,22.83,0,0,1,2.11,2.45,18.82,18.82,0,0,0,3.25,3.91,9.29,9.29,0,0,1,2.69,4.67,5,5,0,0,1-1.37,3.9c-3.76-.12-5-3.5-7.19-5.61-.16-.12-.29-.31-.51-.37a10.94,10.94,0,0,1,1,.93c1.7,2.94,5.48,4.31,6.11,8.06-.75,5-3.71,8.86-6.57,12.71a69.15,69.15,0,0,0-6.42,10c-1.58,1.39-4,.83-5.54,2.27-5.87,4.33-12,8.43-16.34,14.43-1.54,2.11-3.48,2.25-5.72,1.56-7.88-10.3-21.07-12.54-30.75-20.14-2.58-2-5.42-4-8.9-4.53,2.47,4.76,7.84,6.31,10.72,10.47-1.59,1.64-3.47.34-5.21.49-4,.35-5.21,2-3.84,5.68.68,1.83.21,3-.83,4.51a4,4,0,0,0,.81,5.77c2.19,1.86,4.69,1.51,7,.3s2.53-3.43,1.39-5.54C724.3,803.13,726.77,799.57,727.1,795.83Z"/><path class="cls-13" d="M1036.93,794.8c-3.27,3.23-7.81,5.76-6,11.68.55,1.77-1.16,3-1.82,4.48L1017,825.87q-.49.68-1,0a96.89,96.89,0,0,0,4.86-17.68c.59-3.61-.18-6.08-3.62-7.75-6.28-3-12.34-6.5-18.52-9.72a75.32,75.32,0,0,1-16-11c-7.87-7.21-17.46-11.45-26.44-16.69-13.05-7.62-26.29-14.89-38.15-24.38a7.07,7.07,0,0,1-3-5.77c-.3-6.59-1.85-13.1-.18-19.79,1.25-5,5.43-8.67,10.75-8.42,2.49.12,5,.13,7.48.19,1.4.81,2.3-.64,3.49-.78a9.68,9.68,0,0,1,1.27-.39c1.36-.21,2.67-.62,4-.81,2.56.11,3.77-1.19,4.49-3.62,2.24-7.49,3.47-8.28,11.62-8.46,2.14.76,4.38.52,6.58.69a8.53,8.53,0,0,1,1.44.23c2.21,1,4.62.53,6.92.9a9.19,9.19,0,0,1,1.32.29c1.63.7,3.4.54,5.1.85a9.08,9.08,0,0,1,1.24.29,20.59,20.59,0,0,0,4.34.64,8.43,8.43,0,0,1,1.24.26,24.49,24.49,0,0,0,4.33.87,8.63,8.63,0,0,1,1.27.34,52.86,52.86,0,0,1,5,2,185.47,185.47,0,0,0,18,9.63,24.09,24.09,0,0,1,6.78,5,11.79,11.79,0,0,0,4.32,3.35c11.24,1.9,19,9.72,27.59,16.16,5.32,4,10.76,7.84,16.11,11.8,4.35,3.22,7.67,7.36,10.74,11.73,1.43,2,2.08,4.17.69,6.52-1.39,1.69-2.14,4.38-5.25,3.43-1.52-2.19.41-5-1.18-7.14-2.61-5.41-5.69-10.42-10-12.57,4.42,2.31,7.67,7.35,10.17,13,1.46,8.72-1.88,16.19-9.28,20.17C1055.89,784.45,1046.57,789.92,1036.93,794.8Z"/><path class="cls-14" d="M957.94,691.8c-6.36.14-10.46,2.55-10.59,9.7-.09,5.29-3.79,2.8-6.37,2.53-3.66,1.86-3.42-2.19-5.09-3.32-.64.1-1.25.26-1.88.39a19.1,19.1,0,0,1-5.86-.06c-2.45-.72-5-.91-7.47-1.51-1.5-.32-3.06-.14-4.56-.45-5.67-1-11.61-.3-17.07-2.91-2.27-1.08-2.5.56-2,2.33a28.82,28.82,0,0,0,2,5.63c4.37,8.05,5.71,16.92,7.16,25.78-.44,4.37-2.78,4.8-6.19,3-2.88-3.13-3.67-7-4-11.07-.06-2-3.3-2.45-2.51-4.87a1.11,1.11,0,0,0-.25-.52,4.22,4.22,0,0,1,.27,1c-.17,1.56,1.35,2.88.55,4.49-.19,3.83,1.68,7.25,2.11,11-.95,4.35-4.22,5.39-9,2.84-1.78-9.29-3.58-18.57-5.32-27.87-.29-1.56-1.29-3.07-.12-4.78a1.36,1.36,0,0,0-1-2.25,2,2,0,0,0-2.33,1.4,15.4,15.4,0,0,0,.18,4.91c1.67,8.46,3.51,16.89,5.16,25.36.85,4.37-.07,8.92,1.32,13.28.57,1.77-.75,2.1-2.29,2.28-7.41.86-14.81,1.81-22.2,2.79a4.38,4.38,0,0,1-3.65-1c-3.62-2.93-4.52-6.24-2.3-10.51,1.35-2.59,3.69-4.68,4.22-7.65-1.17-1.14-2-.17-2.81.2-6.94,3.08-6.27,1.35-11.45-3.47-4.62-4.29-6.36-11.86-13.69-13.21-5-3.49,0-4.27,1.61-6,1.51-.79,3.16-1.29,4.71-2,.36-.2.72-.39,1.08-.57,1.85-1.14,1.2-2.76.82-4.32a7.39,7.39,0,0,1-.25-1.33c-.09-1.75.36-3.23,2.08-4a9.13,9.13,0,0,0,2.21-1.12c1-1.33.43-2.7.1-4.06a9.09,9.09,0,0,1-.32-1.26,27.66,27.66,0,0,0-.68-3.86,9.41,9.41,0,0,1-.33-1.27,26,26,0,0,0-.7-3.81,9.55,9.55,0,0,1-.33-1.21c-.22-1.16-.35-2.37-1.79-2.74s-3.24-.34-4.52-1.53c-1.49-1.92-.73-4.44-1.77-6.47-.35-1.43-.64-2.87-1-4.3-.31-1.65-.16-3.37-.79-5a7.72,7.72,0,0,1-.32-1.49c-.12-1.61-.07-3.18,1.18-4.42,1.81-1.37,4.16-.76,6.1-1.68a39.34,39.34,0,0,1,6.19-.3,11.65,11.65,0,0,0,6.13-1.62c27.37-10.39,54.86-20.47,82.3-30.7,2.18-.81,4.24-1.92,6.49-2.57,1.75.25,2.35,1.62,2.93,3a15.46,15.46,0,0,0,2.14,5.38,433.06,433.06,0,0,1,15.87,42c.41,2.06.24,4.22,1.1,6.2a28.46,28.46,0,0,1,0,7.31c-1.27,3-.24,6.45-2.11,9.28A2.7,2.7,0,0,1,957.94,691.8Z"/><path class="cls-15" d="M833,665.14a4.52,4.52,0,0,1,.9,3.84c.67,2.25.09,4.73,1.33,6.87l5.64.14c1.46,1.4-.17,3.53,1.16,5l0-.09c1.2,1.52-.23,3.58,1,5.09l0-.09c1.2,1.53-.22,3.59,1,5.1l0-.1a9.25,9.25,0,0,1,.05,6.46l-2.12.46c-4.35-.29-2.1,2.4-1.89,4.18l0-.1c.87,2.54,1.3,4.94-2,6.08l.09,0c-1.62.84-3.82.34-5,2.18-1.71,1.29-4.47,2.13-2.14,5.11.39,2.8,3.18,4.69,3,7.72-.46,2.19-2.32,3.28-3.88,4.37-7.48,5.23-15,10.4-22,16.25l-1.18,1.32c-1.31,5.18-4.17,9.7-6.31,14.52-.54,1.21-1.14,2.43-2.67,2.68L795,758.21a12.3,12.3,0,0,0-3.45-4.3L790,752.18a9,9,0,0,0-3.73-4.1L784,745.2a13.37,13.37,0,0,0-4.61-5.07L775,735.21a9.19,9.19,0,0,0-3.62-4.09,26.59,26.59,0,0,1-2.75-4.08c-2.26-5.15-5.19-6-9.53-2.12-1.45,1.3-2.56,1-3.33-1.45-.91-2.94-1.07-6.38-3.74-8.61a1.44,1.44,0,0,1-.29-1.17,4.7,4.7,0,0,0,.54-4.08,9.45,9.45,0,0,1-.3-1.23,27.32,27.32,0,0,0-.67-3.77,8.43,8.43,0,0,1-.31-1.24,7.9,7.9,0,0,1,.13-2.94c.27-1.24-.71.22-.83-.33-1.89-1.65-.58-4-1.36-5.92a36.94,36.94,0,0,0-.59-4.33,9.29,9.29,0,0,1-.3-1.2,25.68,25.68,0,0,0-.74-4.21,8.76,8.76,0,0,1-.32-1.2,26.26,26.26,0,0,0-.69-3.66,8.86,8.86,0,0,1-.32-1.22,27.06,27.06,0,0,0-.67-3.72,9.3,9.3,0,0,1-.33-1.26,20.34,20.34,0,0,0-1-4.56,8,8,0,0,1-.32-1.42c-.4-4,.32-8.11-.6-12.11a5.57,5.57,0,0,1,0-1.57c1-3.6,3.09-4.6,6.37-2.53,1.43,1.12,2.94,1.74,4.69.69a7.14,7.14,0,0,0,2.95-3c.81-2.08,1-4.32,1.63-6.45a6.06,6.06,0,0,1,2.56-3.47,4.64,4.64,0,0,1,3.51-.68,6.2,6.2,0,0,0,5.81.75c1.48-.14,3-.2,4-1.54,6.77-3.55,10.84-10,16.33-15,6.53-5.85,13.19-11.66,22.44-12.86a5.41,5.41,0,0,1,3.71.79c1.47,1.31,1.15,3.28,1.81,4.89.56,1.78.28,3.69.8,5.48a9.69,9.69,0,0,1,.31,1.27c.32,1.64.15,3.35.66,5a9.25,9.25,0,0,1,.31,1.2,24.35,24.35,0,0,0,.77,4.19,8.8,8.8,0,0,1,.33,1.21A22.74,22.74,0,0,0,823,638a8.37,8.37,0,0,1,.28,1.3c.36,1.65-.43,3.53,1,4.93,1.59,1,4.28.5,4.54,3.3.28,2.22-.07,4.61,1.75,6.41s.1,4.2,1.43,6l0-.1C833.22,661.46,831.88,663.54,833,665.14Z"/><path class="cls-16" d="M645,443.79a239.49,239.49,0,0,1,20.24-33.11c1.94-2.64,5.52-4,8.75-5.28A6,6,0,0,0,678.3,400c.4-3.23-2.24-2.83-3.72-3.57a4.47,4.47,0,0,1-2.71-4.3c-.3-6.27,4.45-11.83,9.72-11.35,1.61.15,3.06.49,3.79,2,1.85,3.73,3.73,2.61,6.68.92,9-5.14,14.41-14.07,22.41-20.22a16.12,16.12,0,0,0,4.47-6.37c2.16-5,7-7.42,10.42-11.13a2,2,0,0,1,2.24-.71c8.05,3.06,17.65,2.36,23.9,9.85,1.52,1.82,5,3.27,3.65,5.75-1.45,2.67-3.55,6-7.34,6.08-3.5.07-5.1,1.85-6,4.84-.19.9-.17,1.58,1,1a4.08,4.08,0,0,1,4.36-3.37,9.54,9.54,0,0,0,6-1.75A7.2,7.2,0,0,1,759,367c1.42,3.21,5,1.8,7.25,3.36,3.18,2.16.11,5.85,2.66,8.21.6.56-1.28,3.55-3.89,3.18a15.94,15.94,0,0,1-1.77.3c-1.21.26-1.74,1.23-2.27,2.17-.81,1.89.68,2.78,1.68,3.87a9.58,9.58,0,0,0,4.21,3c2.33,1,5,1.42,6.74,3.49a11.21,11.21,0,0,1,1.39,3.24c.88,2.59-.22,5.53,1.42,8a6.35,6.35,0,0,1,.54,1.29,5.16,5.16,0,0,1-.9,4.71,4.25,4.25,0,0,1-1.11.83c-1.45.62-3.08.52-4.54,1.1a9.06,9.06,0,0,1-1.31.33c-2,.61-4.73-.8-5.66,2.33-.93,3.51-3.37,6.1-5.37,9-2.55,2.86-3.94,6.37-5.42,9.82a10.63,10.63,0,0,0,.07,4.69c.14.4.26.81.37,1.22a31.91,31.91,0,0,0,1.32,3.56,2.31,2.31,0,0,1-.22,1.32,6.92,6.92,0,0,1-3.64,2c-2.08.53-4.3.09-6.34,1-2.08.57-4.3.08-6.36.83a9.18,9.18,0,0,1-1.36.33c-2.68.41-6.21-.67-6.53,3.8-1.12,1.93-3.18,1.82-5,2.32-2,.3-4.2-.29-6.16.73-2.48,1.43-5.25,1.78-8,2.14-3.68.36-4.25-4.36-7.56-4.6a35.36,35.36,0,0,0-5.05-.12c-3.82.91-7.72.91-11.59,1.19a11.75,11.75,0,0,1-1.31.37,10.76,10.76,0,0,0-5.23,2.3A10.59,10.59,0,0,1,679,459c-2.18.91-3.36,3.63-6.16,3.43-2.09-1.88-3.6-4.42-6.29-5.65a13.33,13.33,0,0,0-5.11-2.88,91.09,91.09,0,0,1-9.92-6.06c-1.18-1.27-2.76-1.5-4.38-1.65C646.05,445.72,644.57,445.61,645,443.79Z"/><path class="cls-17" d="M1058,844.82c3.69.15,6.61-2,9.85-3.23,5.69-2.1,9.91-2.24,12.4,4.91A33.94,33.94,0,0,0,1091,862.24a7.54,7.54,0,0,1,2.57,6.78c-.78,6.35-.26,12.6.51,18.87-1.16.61-2.22,1.28-3.71.76-9.45-3.32-17.18,0-23.88,6.54-3.44,3.34-7.6,3.61-11.53,2.51-6.82-1.91-13.27-1.51-20.1,0-9,2.06-18.43,1.56-27.48,4C991,906.12,974.6,910,958.28,914.33c-12.62,3.36-25.53,5.28-37.92,9.92-19.49,7.3-38.31,15.94-57,25.06-10.45,5.11-21.29,9.41-31.38,15.27-.49.29-1.26.1-1.91.13-3.5.18-5.25-1.47-5.31-5a9,9,0,0,0-.88-3.88c-2.67-5.34-4.08-6.71,3.46-11.61.73-1.24,1.33-2.58,2.68-3.31,6.9-4.92,13.75-9.91,20.74-14.72a14.59,14.59,0,0,1,12.41-2.2,26.22,26.22,0,0,0,13.34.43,136,136,0,0,0,24.93-8.54c3-1.42,5.3-5,9-6,2-.58,3.93-1.84,6.09-.13,1.59,1.26,2.83-.23,3.94-1.06,6.35-4.73,12.62-9.71,20.05-12.55,2-.78,1.53-4.4,4.51-3.25,2.1,1.15,5.38.5,5.88,4.13.1-3-3.53-2.66-4-5-.27-2.49,0-5.18,2.85-5.5,2.56-.29,4.14,1.77,4.33,4.47.12,1.73,1,3.19,2.69,2.85,2.08-.4,1-2.42,1.08-3.76.05-1.68-1.36-2.55-2.33-3.67-4.11-4.74-3.1-7.73,3.11-9.59a29.84,29.84,0,0,1,7.87-1c7.5-.22,14.5-1.55,19.33-8.23,1.09-1.5,2.51-3.13,5.29-3.15-1.34,3.18-2.53,6.06-5.16,8.2-4.25,3.47-4.42,8.26-4,13.18.1,1.33.61,2.28,2.14,2.12a2,2,0,0,0,1.91-2.46c-1.32-8.43,6.35-11.53,10.05-16.94,1.54-2.24,3.63-4,1.91-7a2.92,2.92,0,0,1-.46-1.38c.05-4.5,10.77-13.56,15.46-13.11.77,1,2.92,1,2.15,3.1,3.51,5.85-2.22,17.56-6,20.9-1.74,1.53-5.07,0-6.92,3.07-1.57,2.62-1.17,4.17.59,6.11,1.93,2.13,3.18.77,5-.41,3.87-2.59,3.93-7.59,7.11-10.81,3.09,2.82,1,8.13,4.7,9.9,3.39,1.61,7.29-1.16,11.08.59-.17-.77-.14-1.23-.3-1.31-6.75-3.32-6.89-3.35-5.1-10.71,1.5-6.21.58-12.84,3.47-18.83a2.53,2.53,0,0,0-2.14-3.38c-3.14-.16-3.7-4.81-7.4-3.87-.66.17-1.12-1.5-1-2.53a4.2,4.2,0,0,1,3.94-3.85c3.94-.46,7.92-.6,11.88-.87l1,.71c3,1.69,5.22,4.35,8.57,6C1048.39,843.23,1053.33,843.27,1058,844.82Z"/><path class="cls-16" d="M724.92,455,729,454c-.36-6.51,5.17-3.76,8.08-5.13l-.1,0c2.48-1.42,5.47.47,7.9-1.23,1.82-.57,3.7-.15,5.55-.31,1.43-.48,2.78-1.39,4.42-.94,1.2.64,1.5,1.86,2,3,.54,1.46.41,3.1,1.22,4.49a8.93,8.93,0,0,1,.72,1.87A16.22,16.22,0,0,0,762,463a7.52,7.52,0,0,1,1.21,2.35,8.49,8.49,0,0,0,2,3.94,6.84,6.84,0,0,1,1.1,2.43c.48,3.7,2.73,6.66,4.17,10a8.89,8.89,0,0,1,.52,1.21,21.68,21.68,0,0,0,1.59,4.15,9.08,9.08,0,0,1,.49,1.17,14.64,14.64,0,0,0,2.14,4.6,9.39,9.39,0,0,1,1.21,3.27c-.1,1.39.78,2.92-.55,4.15a23.63,23.63,0,0,1-4.33.1c-.93,0,.13,1-.2.38a5.64,5.64,0,0,1,4.95.32,1.44,1.44,0,0,1-.54,1.4,14.86,14.86,0,0,1-13-.68c-3.6-2-7.2-2.28-10.81,0-3.45,3.86-5.39,8.73-8.48,12.8-6.42,8.44-13,16.73-23,21.34a10.34,10.34,0,0,1-10.84-.87c-1.46-1.3-1.91-3.78-4.46-3.84-6.19-.66-10.52-4.08-13.73-9.2-2-3.14-5.22-3.68-8.54-4-9.32-.89-15.22-5.66-17.54-14.91a9.45,9.45,0,0,0-5.49-6.69c-1.71-.74-4.36-1.09-4.15-3.62.2-2.37,3-2.26,4.53-3.34,4.19-1.65,5.31-5.79,6.33-7.58-1,2.07-2.49,6.25-7,7.85-3,1.58-6.14,2.55-9.55,1.28-8.32-5-16.74-7.27-25.45-.88a2.82,2.82,0,0,1-3.66.15,2.57,2.57,0,0,1-.65-3.58c2.36-3.54,2-8,5.15-11.59,2.47-2.84,2.12-8.09,4.51-11.75.35-.53.73-1,1.1-1.57,1.78-.65,2.94,1,4.52,1.18-1.28-.57-3-.77-2.33-2.92,4.23-3.21,5-8.82,8.6-12.47,1.14-1.14,1.58-2.91,3.16-3.72.83,1.21,2.14,1.1,3.37,1.22a16.66,16.66,0,0,1,3.78,1.91l9.85,6c1.59,1.25,3.56,1.85,5.18,3,2.6,1.32,5.61,2.24,5.72,5.95,3.11.3,3.83-3.11,6.19-4l0,0c1.81-1.42,4-2.08,6-3l-.07,0c4.1-1.27,8.56.39,12.58-1.51,1.88,0,3.77,0,5.65,0,1.83.71,3.69,1.26,4.35,3.57.58,2,2.1,1.66,3.56.89,2.41-.38,4.86-.63,7-2C720.36,455.27,722.74,455.83,724.92,455Z"/><path class="cls-18" d="M605.1,576.82a7,7,0,0,1-1.58-5.61c1.81-7.93,3.05-16.16,6.79-23.37,2.67-5.16,4.93-10.52,7.75-15.6,1.71-3.07,3.69-5,7.45-3.15,1,.51,2.42,1.09,2.91-.51.36-1.16-.86-1.61-1.84-1.84-4.26-1-6.23-2.46-4.11-7.67,1.58-3.88-.36-8.53-2.27-12.45-.91-1.88-1.27-3.33.31-4.88a4,4,0,0,0,.46-.88c7.52-13.15,13.31-15,26.9-8.52,1.34.64,2.78,1,4.18,1.57.71.52,1.53,1,1.42,2.05a4.65,4.65,0,0,1-.57,1.18c.58,0,.78-.66,1.35-.7,7.52-.38,9.39.82,11.81,8.18,2.1,6.38,5.88,10.89,12.69,12.37,10,.05,15.12,5.4,16.84,14.91a17.47,17.47,0,0,0,3.9,8.56,4.7,4.7,0,0,1-.31,5.24,3.67,3.67,0,0,1-1.16.94c-6.54-.45-7.87,6.41-12.35,8.86,1,4.19-4.76,8.28-.51,12-.35-4.94-.87-9.83,4-14.51,2.25-2.18,3.71-5.07,7.09-5.84,1.6-.37,3.27-.75,4.85.2,1.84,1.67,2.22,3.64.77,5.66-1.17,1.63-1.25,2.92.42,4.16,3.43,3.91,7.32,7.66,4.76,13.65a9.27,9.27,0,0,1-2.38,2.64c-1.84,1.18-3.72,2.33-4.23,4.72-3.45,5.82-9.78,7.63-15.17,10.62-6.07,3.37-12.76,5.35-19.55,6.83-1.57-.08-3.16-.44-4.7.25-1.75.47-3.61.23-5.33.87a9.09,9.09,0,0,1-1.33.33c-2,.35-4.12,0-6.08.78-1.75.5-3.61.22-5.34.81a9,9,0,0,1-1.3.32c-1.94.38-4,0-5.89.7a9,9,0,0,1-1.28.33c-1.71.32-3.53.08-5.08,1.14-1.66.85-3.29,1.79-5.26,1.59-3.61-.22-5.16-2.44-5.6-5.75-1.44-2-3.49-3.45-4.56-5.71-1.6-3.45-4.94-5.68-6.48-9.17a9.42,9.42,0,0,1-1.32-3.36A4.23,4.23,0,0,0,605.1,576.82Z"/><path class="cls-19" d="M668.86,851.87c1.23,1.75,2.38,3.53,2.22,5.8.71,1.73,2.27,2.88,3.09,4.53L677,865c1,2.24,3.38,2,5.15,2.91l0,0c1.44,1.44,3.13,2.63,4.48,4.16a24.15,24.15,0,0,1,2.16,2.52,50.66,50.66,0,0,0,3.11,4.1c1.42,2.09-.63,4.64.91,6.71a13.42,13.42,0,0,0,3,3.94,27.42,27.42,0,0,1,2.48,3c.91,1.59,2.59,2.62,3.21,4.43,0,.24,0,.48.06.71a3,3,0,0,1-.62,1.28,49.48,49.48,0,0,1-5.89,4.52c-1.55,1-3.12,1.9-4.88.41-3.76-2-2.66-5.73-1.88-8.34,1.64-5.46-.82-6.82-6.63-7.16,4.55,5.42,2,12.23,5.63,17.28,1.88,2.62-.68,3.11-1.8,4.79,5.13-1.3,7.31,2.63,10.23,4.93a8.29,8.29,0,0,0,4.43,1.85c-1,3.21-3.39,1.49-5.22,1.3-2.39-.24-4.88-1.3-6.5,1.55-1.12,1.34-2.65,1.3-4.14,1.09-9-1.3-18.15-1-27.2-1.74-5.39-.44-10.57.75-15.82,1.41-1,.12-2.64-.2-2.48,1.65.13,1.58,1.37,1.54,2.6,1.54,13.07,0,25.79,4.71,39,2.9,1.75-.24,2.77.48,3.07,2.36.34,2.12,1,4.2,1.4,6.3,1.09,5.14-.7,6.83-5.87,6.63-10.54-.4-21.14-1.33-31.48,1.95a40,40,0,0,1-5.84,1.06c-3.19.5-4.26-1-3.72-4a19.89,19.89,0,0,1-1-2.77,13.73,13.73,0,0,1,0-3.93c.07-.66-.15-1-.09-.35a4,4,0,0,1-.47.08,2.12,2.12,0,0,1-1.06-2.13,8.21,8.21,0,0,0-.17-4.86,3.77,3.77,0,0,0-1.81-2.83L631.14,923c-1.52-1.06-3.46-.61-5.05-1.41a4.43,4.43,0,0,1-1.1-.82c-2.76-3.58-.29-7.94-1.74-11.73a3,3,0,0,1-1.24-2.68c-.19-2.31-1.65-1.91-3.13-1.47-2,.53-4.13.09-6.11.82a9.16,9.16,0,0,1-1.35.33c-2,.35-4.13,0-6.1.75-1.66.75-3.63-.3-5.22.89a2.3,2.3,0,0,1-2.42.87c-3.68-.57-3.79-3.66-4.5-6.32a15.44,15.44,0,0,0-1-1.64,7.65,7.65,0,0,0-3.91-2.84,19.32,19.32,0,0,1-5.81-4.31,6.8,6.8,0,0,0-2.84-2.62,6.65,6.65,0,0,1-1.54-1.3c-.8-1.08-1.69-2.13-1.34-3.64.24-.65,1.95-.4,1.08-1.75a2.4,2.4,0,0,1,2.32-1.07,10.16,10.16,0,0,0,6-.27c2-.53,4.1-.08,6.05-.81,1.33-.51,2.93-.34,3.92-1.65.93-2.44.43-4.88.09-7.32a2.27,2.27,0,0,1,1.05-2.28c.92-2.36.22-4.67-.23-7a7.83,7.83,0,0,1,0-2.71c.36-2,1.24-4,.18-6a2.32,2.32,0,0,1-.91-2.3c.33-2.28,1.79-3.67,3.68-4.74a4.43,4.43,0,0,1,1.88-.69c1.87.07,3.78.54,5.53-.6a4.82,4.82,0,0,1,1.91-.45c2.18.21,4.36.45,6.5-.33a11.89,11.89,0,0,1,4.85-.11c.65.13,1-.09.3-.09,0,0-.08-.3-.12-.46a2,2,0,0,1,2.12-1.15c1.67.06,3.35,1.12,5-.12a2.45,2.45,0,0,1,2.28-.91,9.87,9.87,0,0,0,5.86-.25,24.26,24.26,0,0,1,4-.45,6.83,6.83,0,0,0,3.76-2.24c3.43-2.34,5.71-5.91,9-8.39,1.53-.29,2.88-2.39,4.63-.47.56,1.83-1,4.07,1.11,5.6,1.08,1.51-.2,3.65,1.37,5a32.7,32.7,0,0,1,3.23,4.29l1.71,1.65A17,17,0,0,0,668.86,851.87Z"/><path class="cls-20" d="M950.89,282.16c2.43,3.84,4.23,8.49,9.52,9.15,4.13.52,7.37,2.59,10.61,4.89,2.16,1.53,4.3,3.47,7,3.55s3.47,1.55,4.05,3.5a3.26,3.26,0,0,1-1.28,3.53,4,4,0,0,1-5.47-.28c-3.85-4.49-10-5.15-14.12-9.06-1.79-1.7-3.69-3-6.62-2.61s-4.76-2.36-6.39-4.27c-11-12.89-26.16-10-37.31-5.27-3.74,1.57-7.18,3.21-11.28,2.91-2.4-.17-3.68.71-3.68,3.39,0,2.31-.54,4.62-.67,6.95-.38,6.8-.27,6.44-7.16,5.09-5.12-1-7.44-3.71-8.86-8.5-3.08-10.41-2-20.69-.1-31a9.54,9.54,0,0,0-.07-6.23h0c-4-4.88-4.85-11.11-7.22-16.69a12.38,12.38,0,0,1,3-10.65c2.65-3.06,4.59-6.38,3.26-10.84-.5-1.67-.09-3.64-.06-5.28-.26,1.84.58,4-.86,5.89a5.44,5.44,0,0,1-1.72,1.26c-1.49.71-3.19.55-4.72,1.11a9,9,0,0,1-1.31.34c-1.72.31-3.56.11-5.14,1.11a8.33,8.33,0,0,1-4.06.85c-2.9-.39-6.31,1.35-8.52-2a5.85,5.85,0,0,1-.61-1.27c-.63-2-.15-4.09-.84-6.05a9.08,9.08,0,0,1-.33-1.32c-.37-2,0-4.08-.78-6a9.16,9.16,0,0,1-.33-1.4c-.48-3.37.38-5.93,4.11-6.72a8.84,8.84,0,0,1,1.37-.39c1.74-.39,3.67,0,5.2-1.26a4.4,4.4,0,0,1,.39-.31c6.92-5.49,9-5,13,3a10.67,10.67,0,0,0,2.13,3.32c1.94,1.37,3.65,1.48,5-.82a91.43,91.43,0,0,0,3-11.88c.84-2.15.55-4.46,1-6.67a11.09,11.09,0,0,0,.63-4.39,44,44,0,0,1,.36-5.18,38.23,38.23,0,0,1,2.94-7.28,7.66,7.66,0,0,1,.74-1.16c1.82-2.22,4.28-3.9,5.58-6.57,1-1.45,1.45-3.47,3.56-3.95a2,2,0,0,1,1.08.83c1,1.84.18,4.24,1.84,5.87,2.53,3.3,4.76,6.72,4.87,11.07,0,3.38-.07,6.76.09,10.14,1.69,6.18,2.28,6.53,7.33,2.8,3.6-2.66,7.71-2.55,11.73-3.14,2.06-.3,3.18.7,2.82,2.86a7.71,7.71,0,0,0,.46,3.86,3.84,3.84,0,0,0,1.5,2.91,2.47,2.47,0,0,1,.5,3.13c-.77,1.36-1.89-.82-2.9,0-.76.53-1.88.87-1.11,2.18,2.58,2.65,3.08,6.13,3.74,9.53.12.61.29,1.44,0,1.87-6.32,9.11-.88,17.23,2.36,25.36,1.13,2.84,3.08,5.17.75,8.15-2,2.51.69,5.3-.47,7.93-.25.58.73.92,1.44.69,2.33-.77,5-1.09,6.91-2.42,4.71-3.26,5.29-.52,6.34,3.34,1.31,4.81,1.43,10.36,5.93,13.75,2.93,2.21,7,1.9,10.07,4.29,2.49,1.93,6.28,2.24.39,5.1-2.74,1.33-3.84,5.64-7.66,7.18-1.21-2-1.71-4.47-3.66-6-.39.65-1.76-2.33-1.57.42C950.59,279.6,950.34,280.92,950.89,282.16Z"/><path class="cls-21" d="M860,223.85a5.51,5.51,0,0,0,3.92-1c1.91-1.22,4.28.33,6.17-1l-.09,0c1.47-1.33,3.84.57,5.11-1.45a1,1,0,0,1,.79-.3c3.69.87,3.55,3.42,2.54,6.14a10.26,10.26,0,0,1-2.91,4c-4.29,3.73-4.44,8.14-2.58,13,1.61,6.22,5.73,11.82,4.6,18.73a4.73,4.73,0,0,1-.41,1.88c-5.06,2.39-5.09,7.74-7,12l-6.55,14.36c-2.33-1.47-1.29-5.37-4.25-6.51-3.2-.41-5.54-4.25-9.32-2.33-.27,0-.54,0-.82,0,.47,0,.93,0,1.41-.06,3.54-1,5.82.62,7.42,3.6.63,1.79-.33,3.28-1.07,4.71-1.8,3.47-2.59,6.33,2,8.5,2,.94,2.88,4,1.27,5.48-1.85,1.66-2,7.25-7,3.83a19,19,0,0,0-9.39-3c-3.76-.27-5.11-2.48-5.47-5.78-.16-1.48-.22-3-.39-4.46-.59-5.29-1.59-5.94-6.69-4.4-6.29,1.89-11.62.16-15.19-5.43-2.39-3.76-5-6.89-9.55-8-7.95-2-13.79-7-18.44-13.52-2.59-1-2.93-3.91-4.7-5.62a6.34,6.34,0,0,1-.53-1.32c-.54-2.82,0-5.73-.64-8.54a3.41,3.41,0,0,1,.69-2.54c1.48-1.9-.47-2.58-1.31-3.66a5,5,0,0,1-.64-1.26,12.39,12.39,0,0,1-.11-5,7.54,7.54,0,0,1,.4-1.36c.89-1.89,1.86-3.75,2.77-5.63,2.2-3.69,3.27-8,6.46-11.16a6.56,6.56,0,0,1,4.33-1.26,8.36,8.36,0,0,1,3.56.92c2.58,1.11,5.17,2.37,7.33-.74.13-.42.28-.82.44-1.22.64-1.42.48-3.08,1.29-4.45a3.14,3.14,0,0,1,1-.89c2.71-1.32,6,1.2,8.51-1.27a97.42,97.42,0,0,1,11-3.95,29.57,29.57,0,0,1,5-.49c.68-.2,1.37-.37,2.07-.51,1.85-.43,3.81-.19,5.61-.94a7.68,7.68,0,0,1,1.47-.33c.65-.08,1.33,0,2-.14,4.26-.83,6.23.68,5.4,5.17a1.61,1.61,0,0,0,.52,1.31l0-.1c1.34,2.22-.37,4.89,1,7.1l0-.1c1.34,2.22-.37,4.89,1,7.1l0-.1C853.64,226.7,857.24,223.61,860,223.85Z"/><path class="cls-22" d="M499.92,865q-10.49-2-21-4a11.67,11.67,0,0,1-5.56-3.15c-12.34-11-19.71-24.5-21.6-41.14a68.4,68.4,0,0,1,4.41-33.62c2.57-6.46,4.44-13.21,7.82-19.35a5,5,0,0,0,.34-4.18c-1-3.56,4.35-8.61,7.7-7.65,1.15.58,2.52.57,3.61,1.32,2.54,1.36,4.57,3.41,6.8,5.18a6.82,6.82,0,0,0,5,2.89c3.41,1.73,8,1.56,9.81,5.91a3.34,3.34,0,0,0,2.6,2.58c5.21,2.58,11.12,3.31,16.22,6.15,1.5.94,2.68,2.34,4.33,3.07a27.18,27.18,0,0,1,6.09,4.89,16.29,16.29,0,0,0,2.91,2.34c.86.62,1.63,1.33,2.42,2a20.3,20.3,0,0,0,2.53,1.91c.87.63,1.65,1.35,2.44,2.05a18.61,18.61,0,0,0,2.49,1.9,29.94,29.94,0,0,1,2.4,2,20.79,20.79,0,0,0,2.49,2,4.72,4.72,0,0,1,.89,1,4.26,4.26,0,0,1,0,3.94,5.56,5.56,0,0,1-1.13,1.62,8.16,8.16,0,0,0-3,3.92,31.44,31.44,0,0,1-4.22,5.66,6.9,6.9,0,0,0-2.73,3.21,7.39,7.39,0,0,1-1.53,2,6.42,6.42,0,0,0-2.38,2.88,7.76,7.76,0,0,1-1.57,2.07,7.34,7.34,0,0,0-2.48,2.82,7.29,7.29,0,0,1-1.2,1.49,8.12,8.12,0,0,0-2.92,3.95,81,81,0,0,1-8.1,10.49,7.27,7.27,0,0,0-2.8,3.25,7.57,7.57,0,0,1-1.54,2c-1,.79-2,1.55-2,3-.19,2.28,1.43,4.75-.73,6.81a7.48,7.48,0,0,0-2.76,3.53C502.88,863.2,502.43,865.4,499.92,865Z"/><path class="cls-23" d="M516,776.91l-16.67-6a6,6,0,0,1-3.33-3.28c-1.29-4.59-6.8-2.49-9-5.68-1.78-.58-3.89-.58-4.76-2.73-3.12-.83-4.69-3.77-7.28-5.33-.89-.78-2.29-1.41-.82-2.86L476,748.9c1.71,0,2.11-.66,1.05-2.07-1.49-1.43-2.83-2.71-.62-4.81,1.62-1.54,2.8-3.42,5.28-1.34a24.16,24.16,0,0,0,3,1.76c1.31.8,2.75,1.6,4.13.6,1.91-1.4-.5-2.16-.82-3.2-1.87-6.17,0-8,7.58-7.07.7-1.5-.63-2.06-1.39-2.76-5.07-4.66-5.1-4.65-.74-9.71,1.95-2.26,3.92-4.51,6-6.68,1.83-1.94,3-5.86,6.84-2.26.75.71,1.91-.4,2.49-1.09,2-2.39,4-1.55,6.05-.23,1.18.41,1.86.29,1.22-1.18-5.48-5.59-5.36-5.41,1.31-9.88,3-2,5.37-2.2,7.7.4,2.73,3,6.4,1.27,9.77,2.88-1.12-3.53-5.73-4.22-4.56-8.66,2.24,1.63,4.27,3,6.2,4.55,1.3,1,2.52,1.72,3.8.15s1.43-3-.43-4.2a5.53,5.53,0,0,1-1.89-1.58c-.61-1.13-3.58-1.2-1.94-3.12,1.05-1.23,2.68-3.3,5-1.38s3.61,0,4.48-1.33c1.24-2-1-2.24-2.12-3-.88-2.18-2.3-4.41.48-6.31.49,0,1.1-.13,1.44.2,10.1,9.85,23,15.66,34.43,23.48a14,14,0,0,1,1.91,1.59c.94,1.42,2.48,2,3.94,2.63,3.64,2.7,8.24,4.26,10.38,8.73.51,1.65.57,3.4,1.22,5a105.55,105.55,0,0,1,2.69,13c.44,1.35.42,2.81.91,4.15a7.1,7.1,0,0,1,.26,1.41,6.31,6.31,0,0,1-1.29,4.08c-1.32,1.46-2.64,2.91-4.73,1.13-2.45-1.2-4.86-.41-7.28.18-2,.53-4.24-.06-6.14,1.13-4.22,2.29-8.54,4.37-12.85,6.48-1.64.8-3.31,1.56-5.22,1.16-1.4-.34-2.51-1.35-3.9-1.71a13.91,13.91,0,0,1-6.45-5.08c-.65-1-1.3-2.09-2.73-2.17a6.66,6.66,0,0,0-4,1.75,5.15,5.15,0,0,0-2.43,3,13.59,13.59,0,0,1-4.94,6.2,6,6,0,0,0-2.86,3.18,28.39,28.39,0,0,1-4.51,6.29,9,9,0,0,0-2.91,3.07,12.14,12.14,0,0,1-1.41,2,7.06,7.06,0,0,0-2.5,3.6c-1.32,2.7-2.82,5.22-6.07,5.94A4.57,4.57,0,0,1,516,776.91Z"/><path class="cls-24" d="M508.83,848.09l1.22-2a6.54,6.54,0,0,1,2.72-3l8.28-11a23,23,0,0,1,3.24-4.18l.76-.79a6.64,6.64,0,0,1,2.78-3l1.22-2a6.78,6.78,0,0,1,2.77-3l1.23-2a6.46,6.46,0,0,1,2.69-3l4.31-6.07a22.27,22.27,0,0,1,3.26-4.18l.74-.87c.82-1.15,1.39-2.58,3.06-2.82,3.68.39,6.49,2.42,9.08,4.85,1,1.09,1.79,2.35,3.19,3a13.08,13.08,0,0,1,2,1.43A6.85,6.85,0,0,0,564.9,812c5.58,3.43,10,8.27,15.24,12.15,1,1,1.85,2.3,3.24,2.94a12.81,12.81,0,0,1,2,1.43,7.75,7.75,0,0,0,3.35,2.64c2.1.89,4,2,4.85,4.29-.26,2.32,3.36,1.56,3.1,3.88a7.51,7.51,0,0,1,.39,1.27c.35,1.7.14,3.52,1.1,5.1a4.13,4.13,0,0,1,.3,3.37c-1.35,1-.63,2.67-1.37,3.86a2.06,2.06,0,0,0,.8,2c1,1.88.62,3.84.31,5.8l-.11,3.26c.47,2.33.89,4.67-.22,7a2,2,0,0,0-.77,2.08,19.44,19.44,0,0,1-.19,9.33l-4.1.7c-2.12.82-4.34.15-6.5.44a7.3,7.3,0,0,1-6.31.53,2,2,0,0,0-2,.81c-1.8,1.7-4.19,1.31-6.33,1.8-.36.2-.74.37-1.11.55a6.46,6.46,0,0,0-2.65,3.2,6.93,6.93,0,0,1-1.19,1.47,8.28,8.28,0,0,0-2.43,2.84,7.35,7.35,0,0,1-1.55,2.1,5.39,5.39,0,0,0-2.26,3,5.6,5.6,0,0,1-3.87,3.39,6.46,6.46,0,0,0-3.32,1.94c-2.75,2.33-5.72,4.09-9.53,3.62l-1.23-.44a4.29,4.29,0,0,0,1.24-5.62c-.23-.52.14-1.3.18-2,.1-1.5,3.31-1.51,2-3.33-1.2-1.66-3,.73-4.94.13a6.79,6.79,0,0,0,2.1-5.52c-3.5,3-5.14,1.6-6.55-2.05a15.53,15.53,0,0,0-7.16-8c-3.28-1.86-6.06-4.6-9.05-7-5.41-4.3-11.13-7.87-18.36-7.88a1.88,1.88,0,0,1-2.13-2.11l3.13-3.87a6.68,6.68,0,0,1,2.79-3c3.12-2.23-1.55-4.69.2-7A6.62,6.62,0,0,1,508.83,848.09Z"/><path class="cls-25" d="M728.11,0c10.07,2.61,19,8.1,29,11,2.46,2.89,1.25,6.6,2.21,9.83.28,4.4.22,8.82.11,13.22a7.94,7.94,0,0,1-.22,1.5,21.11,21.11,0,0,0-1,5.48,9.76,9.76,0,0,1-.3,1.31,6,6,0,0,0,.14,4.49,8.86,8.86,0,0,1,.32,1.38c.33,2.44-.12,4.92.48,7.34,1.45,6.22-2.05,11.39-3.54,17-.58,1.71-1.95,3.15-1.67,5.13.8,2.33,3,2.32,4.83,2.77,4.92,1.21,9.89,2.21,14.81,3.44,2.06.84,4.5.82,6.13,2.65,1.53,2.64.57,4.72-1.62,6.34s-3.89,3.91-5.69,6c-1.06,1.12-2.48,1.94-2.9,3.58-1,2.49-2.77,4.52-4.24,6.72a13.91,13.91,0,0,0-2.54,4.49,16,16,0,0,1-3.34,5.68,7.29,7.29,0,0,0-2.42,4.18c-.72,2.11-2.25,3.64-3.68,5.26-1.13,1.12-2.3,2.16-4.06,2a5.67,5.67,0,0,1-1.32-.29c-1.44-.64-2.93-1.2-4.36-1.88A4.89,4.89,0,0,1,741,126c-1.15-2.38,1.07-5.83-2.38-7.47-1.8-.71-3.46-1.78-5.42-2.07-1.37-.57-1.82-2.4-3.5-2.55l-.62,0c-5.47-1.9-10.68-4.58-16.62-5-2.3-.16-3.7-1.94-5.08-3.7s-2.67-4.18-5.27-4.22c-3.47-.06-3.31-1.54-2.31-4.08,7.76-19.65,12.65-40.2,19-60.29C722.6,24.51,724,11.94,728.11,0Z"/><path class="cls-26" d="M581.21,704.17c-4.75-4.08-10.38-6.81-15.56-10.23s-10.6-6.49-15.8-9.89a13.25,13.25,0,0,1-4.85-6.13c-2.78-2.05-2.55,1.33-3.76,2.09-.27,3.42-3.45,2.67-5.37,3.7-1.55.83-3.19,1.5-4.78,2.24-2,.08-1.54-1.09-1.19-2.24-.63-2,1.84-5.14-.1-5.79-2.37-.79-3.4,2.72-5,4.37-3.39,3.48-5.42,8.19-9.69,10.89a1.06,1.06,0,0,1-.16-1.47c1.45-4.8,5.26-9.73-.76-14.12-2.28-1.66-4.5-3.41-6.87-4.95a20.25,20.25,0,0,1-7.46-9.09,10.22,10.22,0,0,1,2.94-12.32c2.1-1.62,4.26-3.17,6.41-4.73.66-.48,1.35-.91,2.18-1.47,1.63,1.33-.05,4.53,2.4,4.86,2.19.29,3.18-2.1,4.65-3.34a32.15,32.15,0,0,0,3.79-3.93,24,24,0,0,0,1.83-2.85c-.47-.28-.72-.57-1-.56-1.74.12-3.09,3.58-4.48,1.69-1.68-2.28,2-2.59,3-4.09,1.26-2,6.41-2.59,2-6.14.73-2.37,7.18,2.38,4.44-4-.4-.93,1.45-.26,2.29-.05,1.21.3,2.05-.33,2.05-1.44,0-1.43-1.38-1.07-2.27-1.28-.53-2.26,2.64-2.12,2.62-4.05,2,.6,2.59-1.76,4.2-2a4.22,4.22,0,0,1,1.86.36,28.41,28.41,0,0,0,4.26,1.45,118.62,118.62,0,0,1,11.2,3.93c2.15,1,3.28,2.34,2.8,5-1.13,6.28-1,6.3,4.83,9,1.79.78,4,.1,5.63,1.37,1.25.75,1.72,2.4,3.26,2.82,2,.53,4.35,0,5.82,2,2.47,3.37,4.71,2.76,6.78-.42a4.24,4.24,0,0,1,4.51-.86c1.21.44,2.36,1,3.61,1.36a10.42,10.42,0,0,1,1.2.43,5,5,0,0,1,2.61,1.84,3.23,3.23,0,0,1,.18,1.3c-.14,1.46-.92,2.92.06,4.37,2.61,4.19,5.19,8.39,6.49,13.22a9,9,0,0,0,0,1.49c2.25,8-1.87,14-6.17,20s-6.8,13-12.5,17.88A3,3,0,0,1,581.21,704.17Z"/><path class="cls-27" d="M758.06,455.88l-.92-.95c-1.08-1.22-.38-2.7-.59-4.05-.36-1.5-1-2.91-1.44-4.38a5.24,5.24,0,0,1-1-1.64l0,.06c-1.15-1.12-1.31-2.73-2-4.05l0,.08c-1.06-1.7-.32-3.57-.51-5.35a100.69,100.69,0,0,1,5.5-10.75c1.07-3.3,4.87-5.09,5-8.93.56-1.6,1.32-2.72,3.39-2.56,1.53.12,3.19.53,4.66-.44l-.08,0c1.51-1.25,3.57.18,5.08-1L775,412a19.77,19.77,0,0,1,2.54-1.48,68.31,68.31,0,0,0,16.21-9.43c3.07-2.45,6.79-3.3,10.47-4.24a13.27,13.27,0,0,1,5.19,0c8.74,2.24,14.31,8.56,19.56,15.29,2,.62,2.58,2.52,3.22,4.06C835,422.67,840,426.81,846,430c4.14,1.9,6.66,4.19,4.66,9.51-1.26,3.34,1.74,6.91,1.19,10.59a3.55,3.55,0,0,1-.68,1.24c-1.51,1.13-3.36,1.63-4.94,2.65-4.82,1.21-8.74,4.74-13.79,5.38a50,50,0,0,0-6,.22c-2.23.84-4.59.7-6.89,1a21.63,21.63,0,0,1-6.82.87,14.75,14.75,0,0,0-2.88.59,27.58,27.58,0,0,1-4.33.4,15.29,15.29,0,0,0-2.79.6,28.29,28.29,0,0,1-4.31.41,20.13,20.13,0,0,0-2.85.65c-1.73.39-3.51.17-5.25.51-2.21.87-4.57.67-6.86,1-2.22.83-4.57.73-6.87,1-2.2.8-4.52.76-6.8,1a14,14,0,0,1-2.28.57c-2.28.33-4.3,0-5.52-2.26l-.75-1.88A28.14,28.14,0,0,1,758.06,455.88Z"/><path class="cls-13" d="M967.82,86.88c2.57-1,4.7.92,7.09,1a107.28,107.28,0,0,0-7.07,20.85c-.1.46-.41,1.2-.71,1.25-6.23,1-6.69,7.06-9.77,10.83-.62.75-1.36,2.38-2.32.23-.34-.75,0-2.44-1.6-1.32a2,2,0,0,0-.4,2.69c.61,1.23,2.5,2.68,1.19,3.85-1.52,1.35-3.43-.19-5-1-1.16-.55-2-1.74-4.05-1.7,3.7,4.15,7,8.18,10.68,11.79,1.36,1.32,2.22-.72,2.76-1.83,2.18-4.49,4.31-9,6.41-13.53,1.14-2.46,2.48-4.39,5.31-5.52,3.58-1.43,4.3-4.64,3.42-8.36-1.26-5.32,1.34-9.66,6.45-11.14.62-.18,1.82-.35,1.9-.16,1.81,4.25,7.57,3.22,9.45,6.8,1.74,3.33.19,6.8-1.65,9.9a2.2,2.2,0,0,0-.27.41c-.56,1.88-3.53,4-1.33,5.47,1.76,1.2,5.27,1.54,6.24-2.22,4.88,3.39,3.4,6.52.06,9.57-1,.89-2,2.25-3.15,2.36-10.51,1-11,9.18-12.09,16.77-.56,3.85-1.12,7.52-4,10.49a5.47,5.47,0,0,0-1.24,4.23c.22,2.81-.9,3.74-3.74,4.59-3.37,1-6.4,3.33-5.36,8.07,1.15,5.26-1.69,9.5-4.25,14.2-3.71-6.32-8.71-11.47-10.49-18.49-1.06-4.2.87-8.23.7-12.35-.07-1.57,1.71-4-.87-4.69-2.33-.66-4.13.75-4.94,3.14a11.61,11.61,0,0,1-.94,1.6c-1.42-2.25-2.59-4.22-3.88-6.11-2.33-3.38-4.57-7-9.72-5.33a2.19,2.19,0,0,1-.91,0c-.07-3-6.06-4.54-2-8.7,3-3.14,1.55-6.65.08-10.2-2,.75-3.33,3.48-5.78,1.51-1,1.65-2.25,2-3.89,1L916,124.94c-3.44-3.79-3.49-8.36-.15-12.93.39-.54.32.31.12-.14-2.93-6.59,2.11-11.95,2.84-18,.55-4.54-.29-9.2,1.24-13.64,4.9-2.46,9.79-5,15.52-2.9,1,2.44,3,.7,4.45,1s2.74,1.18,4.18,1.58a4.65,4.65,0,0,0,3.46.25,10.55,10.55,0,0,0,1.36-1.1c1.25.81,2.14,2.35,4,1.91,1.61,1.2,3.57,1.58,5.4,2.27,1.07.84,2.68.47,3.6,1.65a5.13,5.13,0,0,1,.92,0C964.55,85.51,966.39,85.7,967.82,86.88Z"/><path class="cls-28" d="M584.09,644.25c-3.36,5.93-3.62,6.13-8.09.23-2-2.63-4.48,1-6-1.34-1.72-.75-1-3.42-3-3.9-1.6-1.62-3.34-.53-5-.26a38.55,38.55,0,0,1-5.43-2.34c-2.15-1.33-3.68-2.78-1.65-5.83,1.85-2.79,1.59-5.54-2.62-6.62-3.51-.9-6.89-2.36-10.32-3.57-.74-1.67-2.65-.76-3.72-1.69L537,617.83c-1.27-1.48-3.79-1.23-4.72-3.26,1.49-1.45,3.68,2,4.71-.69.93-2.39-2.92-1.91-2.73-4.5,3.59,1.26,5.31-.33,6.47-3.75s-2.83-2.14-3.1-4.2c1.48-1.94,4.2,2.07,5.3-.77.77-2-2.53-1.11-2.59-2.91,1.37-.9,2.95.77,4.22-.4-2.43-4-1.17-7.13,3.49-8.75.15-.05.44,0,.48-.06,4.8-9.21,13.79-3.45,20.6-5.51,3.54-1.07,7.79-1.06,11.76-1.24,4.24-.2,6,2,7.15,5.09a8.39,8.39,0,0,0,4.82,5.12c1.32.43.17,2.76,1.35,2.52,2.54-.51,5.09,1.79,7.19.35,2.53-1.73,1.54-4.15-.14-6.22-.86-1.07-.63-2.53-1.21-3.71L596.8,582a.65.65,0,0,1,.27-1.07,1.51,1.51,0,0,0,.82-.19c.68-.3,1-1.48,2.09-.75,3.16,2.29,1.12-2.29,2.73-2.06,1.2,1.81-.63,4.32,1.39,5.93,1.88.3,3.49,1.52,5.44,1.6a15.59,15.59,0,0,1,5.54,5.74l4.84,4.66c-.12,2.72-1.09,5.65,1.83,7.65a2.6,2.6,0,0,1,1,2.25c-.18,1.44-.55,2.89,0,4.33a9.14,9.14,0,0,1,.3,1.22c.31,1.62.14,3.31.69,4.9a8.76,8.76,0,0,1,.31,1.21c.31,1.62.15,3.31.72,4.89a8.58,8.58,0,0,1,.32,1.22c.37,1.85.06,3.77.66,5.59a8.79,8.79,0,0,1,.31,1.22c.32,1.64.14,3.35.72,5a8.61,8.61,0,0,1,.32,1.23c.37,1.87,0,3.82.68,5.66a8.59,8.59,0,0,1,.32,1.28c.4,1.45-.35,3.15,1,4.38a2.62,2.62,0,0,1,.4,2.62,4.37,4.37,0,0,1-3.46,2.68,10,10,0,0,1-6-1.13c-1.57-1.05-3.19-2-5.2-1.66a10,10,0,0,1-3.91-.89c-1.16-.84-2.33-.32-3.51,0-1.61,0-3.2-.23-4.81-.11a9.37,9.37,0,0,1-4.28-1.14c-2-1.45-3.85-3-6.4-3.31l.06,0c-1.28-.79-2.78-1.09-4.1-1.77C586.21,641.9,584.84,641.91,584.09,644.25Z"/><path class="cls-29" d="M710,115.92c.86.52,1.48,1,2.49-.14,2.43-2.68,5.48-2.62,8.71-1.47,7.13,2.53,8.55,5,6,12.4-1.89,5.4-2.42,11.85-9.08,14.28,1.05,5.19-4.18,7-5.83,10.87-2.2,5.11-2.54,5-6.61,1.11-.22.43-.71,1-.59,1.2,2.88,5.42-1.2,9.47-3.06,13.68-3.15,7.11-7.18,13.83-10.84,20.72a3.59,3.59,0,0,1-5.59.6c-1.88-1.64.27-3.23,1.36-4.55.84-1,1.67-2.07,2.56-3,1.74-1.91,3.38-3.93,2.3-6.64s-3.73-2.93-6.86-3c.62.06.65.13.67.13,6.09.57,8.35,3.14,4.48,8.75a38.83,38.83,0,0,1-4.26,4.87c-.86.89-2.55,1.58-1.94,3.14s2.28,1,3.54,1.14a2.25,2.25,0,0,1,2,1.15c-3,7.65-6.05,15.29-9,23a27.94,27.94,0,0,1-4.32,7.68,2.3,2.3,0,0,1-.56,2.7c-3.32,3.24-5.25,7.47-8.06,11.06-.56.36-1.26.89-1.82.61-6.69-3.4-14.19-5.55-18.86-12.1-1.23-5.2.34-10.32,2.59-14.5,4.79-8.92,4.78-18,3.05-27.35-.28-1.52-.3-2.8,1.12-3.39,8.79-3.68,10.86-12.48,15-19.64,3.51-6,6.7-12.21,10.06-18.3a36.57,36.57,0,0,0,5-15.34c.45-6.2,4-11.49,7.28-16.68,1.64-2.61,4.58-2.93,7.33-3.24,3.66-.41,5.73.86,4.88,5a5.56,5.56,0,0,0,2.33,6.12c1.55,1.08,2.77.85,3.73-.77C709.49,115.4,709.76,115.37,710,115.92Z"/><path class="cls-30" d="M747.06,305.63c-6.17,1.5-7.16,7.61-10.07,11.83-2.68,3.89-6.25,6.78-9.51,9.93-2.14,2.07-5.68.49-8.46-.71-3.57-.33-6.26-2.66-9.36-4.08-2.93-2.7-4.75-6.18-6.64-9.6-.77-.29-1.64-1-2.3-.82-6.89,1.68-8.69-4.17-12-7.88-6.78-7.53-6.5-16-5.14-25.45.63-4.33-.37-9.32-.36-14,2.57-2,4.47.08,6.56,1a16.18,16.18,0,0,0,4.66,1.86c.42.09.83.22,1.24.34a2.61,2.61,0,0,0,3.33-1.21,10.59,10.59,0,0,1,.83-1c2.69-2.93,5.8-5.47,8.18-8.7a7.82,7.82,0,0,1,2.59-2.2c1.87-.75,3.63-2,5.82-1.33a18.22,18.22,0,0,1,4.4,1.43,8.36,8.36,0,0,0,4.39,1.65,7.26,7.26,0,0,0,3.71.2c2.34-.46,4.47.66,6.72.87,3.46,1,7.22,1.11,10.35,3.24,1.08,1,2.31,1.78,2.85,3.21.63,3.93-1.8,7.06-2.73,10.59-.92,1.59-1.84,3.19-1.6,5.15a12.59,12.59,0,0,0,1.16,9.52c.06,1.9-.6,3.86.54,5.66a5.34,5.34,0,0,1,.48,1.9c.07,1.94-.93,3.92.24,5.82C748,303.71,747.91,304.64,747.06,305.63Z"/><path class="cls-31" d="M745.79,297l-.47-1c-1.43-1.88-.68-4-.52-6-2.61-2.91-3-6.19-1.69-9.78.57-1.7.54-3.59,1.62-5.13.45-3.91,3.25-7.15,3.21-11.2a6,6,0,0,1,.14-3.63c1.75-6.68,3.58-13.34,6.52-19.62,1.19-2.74,3.08-2,5-1a32.31,32.31,0,0,1,5.44,3.6c3.69,2.21,7.54,1.45,11.39.61,1.37-.54,2.58-1.42,3.94-2,4.25-.5,4.37-.4,3.51,3.09l-.87,2c1.4,3.25-.43,6.82,1,10.06l-.05-.08c2.18,2.3,2.38,5.31,2.93,8.2,3.45,5.93,8.28,10.5,14.74,12.66,6.82,2.28,10.72,6.62,12.12,13.49a5.3,5.3,0,0,0,.6,1.89c5.44,8.05.88,14.45-3.56,20.73-2.66,3.76-5.05,3.33-9.09.67a15.47,15.47,0,0,0-14.2-1.36c-4.62,1.77-6.73.1-9-3.71-4.68-7.8-11.92-10.11-20.61-7.26-3.61,1.18-7.23,2.31-10.85,3.46a3.41,3.41,0,0,0-.87-2.75C745,301,745.58,299,745.79,297Z"/><path class="cls-13" d="M851,450.87c-.65-3-1.44-6-1.89-9.09-.23-1.54-1.51-3.36.94-4.67,1.79-1,.31-2.22-.36-3.26-1-1.51-3.07-2-3.63-3.89,1.32,0,3-.44,3.9.22,4.49,3.45,7.95.48,11.12-1.87,3.93-2.91,7.92-5.82,10.65-10.17,2.15-3.41,7.3-3,9.7.3a10,10,0,0,1,1.62,9c-1.38,4.24-2.18,9-4.51,12.55-3.06,4.63-2.27,8.58-.89,13.49,2.65-2.61-1.53-6.61,2.08-8.52,3.67.71,3.57,4.47,5.4,6.67,2.92,4.3,3.7,9.15,3.72,14.21a5.45,5.45,0,0,1-1.73,5.14c-1.22,1.73-.25,3.69-.61,5.51a1.64,1.64,0,0,1-.84,1c-2.38.7-2.29,2.16-1.21,3.93a14.35,14.35,0,0,1,1.35,6c.06,1.8-1.17,3.68.33,5.4a3.49,3.49,0,0,1,.83,3c-.47,1.9-.84,3.79.57,5.5,2.62,4.58,4.33,9.56,6.16,14.46,1.22,3.26,3.28,6,4.74,9.13.9,3.14,3.76,4.45,6,6.36,3.11,3.63,5.57,7.45,3.81,12.55-2.16,2-.18,4.31-.59,6.45a3.79,3.79,0,0,1-.2,1.4,3.53,3.53,0,0,1-3,1.84c-5.57-.85-9.69-3.83-13.07-8.3a91.12,91.12,0,0,1-12.07-22.27,32.89,32.89,0,0,0-6-10.3c-5.52-6.18-7.52-13.94-9.7-21.62a8.79,8.79,0,0,0-4.68-4.67c-2.76-.81-4.71-2.41-5.18-5.41a11.08,11.08,0,0,0-1.24-5.09,9.87,9.87,0,0,1-.5-1.2,10.38,10.38,0,0,0-2.39-4.45,32.69,32.69,0,0,1-2.79-5.84c-.67-1.68-.83-3.71.94-4.42C852.52,458,851.48,454.43,851,450.87Z"/><path class="cls-32" d="M689.05,266.92c-1.92-.79-3.53-2.46-5.87-2.09a25.73,25.73,0,0,0,.17-12.82c-1.76-6.76-1.72-13.52-2.58-20.25a25.94,25.94,0,0,1,2.53-14.95c4.11-8.33,6.27-17.36,9.85-25.86a2,2,0,0,1,1.22-.58c2.57.48,4.41,2.42,6.74,3.37,2.94,1.3,5.89.92,8.85.07a7.12,7.12,0,0,1,1.55-.27c7-.13,14-.16,20.95,0a9.05,9.05,0,0,1,1.59.22c2.91,1.3,6.13.27,9.1,1.16a3.4,3.4,0,0,1,1.26.88,3.73,3.73,0,0,1,.56,2.15c-2.22,10.14-7.27,19.15-11.48,28.49-1.71,3.79-3,7.73-4.39,11.62a11.55,11.55,0,0,1-3.1,4.47,37.38,37.38,0,0,0-5.1,5.14,32,32,0,0,1-4.51,4.77c-2.19.61-3.6,2.49-5.57,3.45a3.09,3.09,0,0,0-1.79,2,56.19,56.19,0,0,0-9.07,9l0,0c-1.18,1.88-2.48,3.47-5,2l.1,0C693.22,267.87,691.07,267.6,689.05,266.92Z"/><path class="cls-33" d="M553.34,393.93c7-11,12.31-22.94,18.45-34.42,9.75-18.25,19.63-36.43,29.46-54.64,3.33-1.62,6.1.09,8.85,1.59q8.09,4.39,16.23,8.69c1.42,1,3.06,1.77,3,3.87-15.78,27.94-31.22,56.08-46.82,84.14a9.19,9.19,0,0,1-2.32,3.21,4,4,0,0,1-2.21.48,56.61,56.61,0,0,1-20.78-8.71C555.53,397,553.86,396.05,553.34,393.93Z"/><path class="cls-34" d="M553.34,393.93c6.92,3.71,12.88,9.43,21.29,10.11,1.19.1,2.3,1.23,3.45,1.88,2.38,1.91.83,3.82,0,5.74-7.7,14.93-16.12,29.46-24.25,44.16-1,1.75-1.77,3.59-2.83,5.27-2.12,3.35-1.08,5.29,2.22,7.13,7,3.93,7.1,4.71,3,11.5-2.72,4.55-4.63,9.58-8.23,13.61a3.18,3.18,0,0,1-2.4.09c-7.7-2.92-14.72-7.11-21.57-11.62a3,3,0,0,1-1.29-2L520,476.91a.73.73,0,0,1-.45-.71q0-.45.18-.45c1.45-1,3.78-1.7,1.34-4a1.45,1.45,0,0,1-.22-2l0-1.66q-.73-.7.18-1.13c-.38-1.75,2.11-4.33-1.48-5.2a2.57,2.57,0,0,1,.19-1.19c3.55-6,3.77-13.32,7.67-19.28,3.35-5.11,3-5.31-.87-9.08,5.71.56,6.95-.51,10.71-9.23a1.36,1.36,0,0,1,.7-1.06c4.47-1.86,9.26-9.84,9-15.1-.2-3.71,4-5.35,4.1-8.88a3.23,3.23,0,0,1,.8-1.05A3.71,3.71,0,0,0,553.34,393.93Z"/><path class="cls-35" d="M599.22,522c1.6,1.91.2,3.85-.05,5.71a157.8,157.8,0,0,1-8.1,33.29c-1.52,4.12-3.74,6.8-8.53,7-3.07.12-5.89,1.74-9,2.26-6.82,1.13-13.63-2.14-20.44.65-3.77,1.54-7.95,2.08-11.94,3.06-4.77-1.25-5.22-2.49-3.19-8.75a23.09,23.09,0,0,1-.11-6.37,10.13,10.13,0,0,1,.29-1.41c.76-1.82.39-3.79.71-5.67a4.41,4.41,0,0,1,1.47-2.57,4.2,4.2,0,0,1,2.8-.89c3.73,1.58,5.82.26,7.17-3.5,3.61-10.05,5.81-20.48,8.65-30.74.76-1.67.73-3.49,1-5.26a9.66,9.66,0,0,1,.3-1.31c.81-1.81.15-4.09,1.75-5.66a2.22,2.22,0,0,1,1.31-.3c1.31.42,2.55,1.05,3.87,1.47,9.43,4.71,18.44,10.18,27.74,15.13C596.58,519.06,598.38,520,599.22,522Z"/><path class="cls-36" d="M658.84,368.05c-1.85,4.68,1.32,8.55,2.51,12.56,1.4,4.68.15,8.18-2.52,11.41-11.11,13.4-18.88,29.22-30.71,42.08a11.51,11.51,0,0,1-2.71.91,66.79,66.79,0,0,1-17-9,10.65,10.65,0,0,0-4.18-2.11c-2.76-1.49-6-2.42-6.87-6.07,1.59-5.69,5.08-10.42,7.87-15.5q12.37-22.52,24.93-44.94c1-1.85,1.85-4,4.41-4.36,7.59,2.39,13.93,7.16,20.77,11C656.67,365.21,658.5,366,658.84,368.05Z"/><path class="cls-37" d="M626.2,316c-5.51-.31-9-4.79-13.85-6.74-3.67-1.49-7.16-3.5-11.11-4.4,8.11-14.46,14.26-30,24.93-43,1.66-2,5.1-4.69.54-7.8-1.21-.83,4.55-11.22,6.22-10.8,3.79,1,4.14-2,5.21-3.88,2.11-3.76,4-7.68,5.8-11.58a8.77,8.77,0,0,1,2.92-3.78,207.3,207.3,0,0,0,18,10.36,2.13,2.13,0,0,0,2.18.24,2.6,2.6,0,0,1,1.47,3.73c-3.89,7-6.4,14.74-10.3,21.77-1,1-2.76,1-3.41,2.48s-1.07,3.11-1.8,4.58c-.61,1-1.49,1.94-1.47,3.26-.56,2.22-1.38,4.36-2.08,6.53a9.24,9.24,0,0,0-1.91,3.88c-2.13,4.48-5.36,8.21-8.18,12.22-1.35.83-3.57-.59-4.36,1.7-1.53,3.09-3.31,6-4.86,9.12-1.24,2.53-.35,5.29-.9,7.9C628.76,313.56,628.13,315.27,626.2,316Z"/><path class="cls-34" d="M654.75,364.88,635,353.9c-2-2.57-.2-4.75.88-6.86,3.47-6.75,7-13.47,10.8-20.05,1.3-3.43,3.65-6.27,5.39-9.46,1.5-2.76,3.09-5.37,2-8.85-.67-2.22.38-4.86,2.34-5.56,6.69-2.39,7.78-8.89,11-13.85.62-1,.83-2.17,1.77-2.95,3.89-.81,7.1-2.4,8.1-6.74.15-.64.89-.92,1.61-.88a16,16,0,0,1,0,7.91c-1.61,6.68.78,12,4.64,17.1a31.58,31.58,0,0,1,6.14,24c-.4,3-1.13,5.89-3.75,7.84-2.8.1-3,0-3.31-2.73-.33-3,0-6-.16-8.93-.07-1.5.72-3.41-1.57-4.27,2.38,5.07,2,10.22.88,15.35-.25,1.13-.91,2.06,0,3.11a28.66,28.66,0,0,0-10.55,15.12c-1.68,6.05-7.27,8.67-11.39,12.57C657.84,367.5,656.42,365.49,654.75,364.88Z"/><path class="cls-38" d="M560,514.19a200.77,200.77,0,0,1-8.83,32.32c-2,5.54-3.09,5.76-8.1,2.54-2.71-.78-4.1-3.54-6.71-4.47-2.69-1.35-4.35-3.81-6.38-5.88-3.2-3.71-6.26-7.57-10.69-10-.91-.77-2-1.48-1.32-3-.67-1-2-1.74-1.5-3.37,1-3.23-.29-4.62-3.6-4.46-2.26.11-2.17-1.55-2-3.06.13-1.15-.39-3.1,1.79-2.64,6.7,1.41,4.66-3.07,4.43-6.38a37.08,37.08,0,0,1,.8-7c.27-2.26.39-4.55.85-6.77.55-2.66-.68-4.14-2.85-5.21-.55-1.47.28-2.25,1.43-2.87,4,1.4,2.41-4.41,5.44-4.28,8.42,4.36,16.23,9.92,25.28,13.07,5.27,1.81,10.46,3.74,13.62,8.81-.51,2.08.45,4.31-.66,6.32l.07-.13C559.72,509.79,561.33,512.24,560,514.19Z"/><path class="cls-29" d="M609,424.89a99.47,99.47,0,0,0,16,9c1.07.75,2.14,1.5,1.11,3l-24,35.43c-2.71-2.72-7,1-2.11,1.82,3.8.6-1.52,1.17,0,0,4.77-3.68-3.08,4.67-.32,3.63-6.27,3.05-12-6.41-8.32-2.06,2.41,2.88,5.75.62,8.32,2.06-.63,5.09-2.07,10.1-1.55,15.3.3,3,0,5.17-4.2,2.55,1.25,6.85.65,13.33,5.53,18.58,1.79,1.93,1.44,5.21-.21,7.78l-33.1-18.08a3.42,3.42,0,0,1-2-2.8c.21-3.37,3.82-5.79,2.67-9.54a3.83,3.83,0,0,1,1.35-3.05c1.35-.79,3.43-.46,3.9-2.59a129.57,129.57,0,0,1,7-13.23c1.19-2.13,1.44-3.9-.81-5.64-3.32-2.57-2-5.58-.39-8.48,1.47-2.73,3-5.48,6.84-4.26s5.06-1.24,6.53-3.77c4.61-7.9,8.56-16.17,13.61-23.81C605.89,425.38,607.05,424.27,609,424.89Z"/><path class="cls-39" d="M669.08,286.66c0,6.25-5.18,10.16-7.08,15.57-.33.93-1.4.95-2.52.94-3.43,0-5.15,3.1-4.21,5.2,2,4.41-.68,7.17-2.27,10.33-1.44,2.87-3.34,5.52-5,8.27a3.11,3.11,0,0,1-3.69.46c-5.11-2.84-10.78-4.73-15.21-8.75-.87-1-2.48-1.17-2.88-2.66l1.86-4.13c1.34-2.91-.36-6.16,1-9.06l5-8.81c1.11-2.83,3.17-.89,4.83-1,1.46-5.16,5.61-8.63,8.2-13.08.31-1.09.55-2.23,1.7-2.82a10.41,10.41,0,0,1,2.26-6.93c3.18-.95,4.1-.6,4.33,2.53.3,4.22.8,8.51-.94,12.71.9-.19,2.21.23,1.77-1.17-1.08-3.43-.76-6.94-.55-10.37.2-3.15-.76-5.35-3.33-7a9.07,9.07,0,0,1,1.77-5.08c1-.73,2.58-.64,3-2.14a10.61,10.61,0,0,0,2.82-6.91c.32-4.28,4-7.47,5.83-11.34,1-2.15,3-4.19,1.3-6.88,1.39-5.45,5.85-8.73,9.09-12.87.32.53.92,1.07.9,1.59-.43,14,2.24,27.79,2.22,41.75,0,2.11.65,4.33-1.18,6.08-1.14.29-1.78-.53-2.6-1.07-4.54-3-8.12-1.09-9,4.34C665.76,278.94,668,282.65,669.08,286.66Z"/><path class="cls-13" d="M829,412.06c-2.53.56-3-1.85-4.14-3.08-4.23-4.63-8.77-8.75-14.8-10.88a6.19,6.19,0,0,0-6-.13c-6.44,1.54-11.31,5.91-16.7,9.33a34.45,34.45,0,0,1-9.45,4.29c-2.54-.77-.51-3.46-2-4.69l0,.07c-2.7-2.54-.35-6.32-2.21-9.07-.89-.79-.69-1.89-.8-2.9a1.41,1.41,0,0,1,0-2c1.79-.35,3.57-.76,5.37-1,5-.77,6.16-2.37,5.28-7.56-1.67-9.75-1.68-9.81,7.88-11.23,2.33-.35,4.25.07,4-3.68-.21-3,2.51-2.61,4.22-1.06,3.24,2.93,5.09,1.57,6.74-1.68,1.06-2.07,2.39-4,3.62-6,.63-1,1.32-2,2.74-1.67s2,1.57,2.14,3c.36,2.85-.11,5.17-2.87,6.83-3.3,2-3.42,4,.14,6.22,9.85,6.18,19.27,13,29.43,18.74,1.53.86,4.31,1.27,3.7,3.9-.54,2.3-2,4.18-4.79,3.7-.7,2.08,2.9,2.68,1.64,3.63-2.53,1.92-3.6,5.81-7.62,5.82C832.73,410.93,830.61,410.37,829,412.06Z"/><path class="cls-40" d="M531.09,538l5.67,5.86c2.1,1.55,5.13,2.44,4.22,6.07l-.89,1.85c-1.36,1.88.23,4.27-1,6.16l0-.09c-.6,2.74-1.38,5.49.48,8.08-3.07,3.38-1.62,5.87,1.57,8-1.14,2.77-5.36,4.35-2,9.54-4.43-2.89-6.85-2.32-9.42.41-4.19,4.43-9.65,7.35-14.71,10.66-3.08,2-9.51-2-11.07-6.67-.61-1.85-.73-3.69-2.77-4.82-.73-.4-1.4-2.56-1-3.1,3.1-4.22.45-9.36,2.42-13.71.56-1.22-.14-3,2.09-3.41a1.77,1.77,0,0,0,1-2.81c-4.12-3.93-.23-8.13-.54-12.16-.22-2.84,2.48-2.19,4.11-2,3,.31,3.65-.56,3.88-3.75.38-5.3,2-10.51,3.14-15.74.07-.31,1.11-.41,1.69-.6l1.83,2.06C524.15,530.59,526.92,535.08,531.09,538Z"/><path class="cls-20" d="M915,126.08c5.49,5.62,2.36,13.78,5.89,20,.54,1.68-.76,2.5-1.79,3.1-6.23,3.62-12.57,7-19.74,8.45a2.69,2.69,0,0,1-1.3-.74l0,0c-.75-3.09,3.23-5.32,1.55-8.59-4.76-10-9.67-20-11.82-31a76,76,0,0,1-.1-9.67c1-4.59,2.3-9,6.08-12.21a30.21,30.21,0,0,0,3.67-3.34,41.41,41.41,0,0,1,9.18-6c1.48-.66,2.88-1.46,4.3-2.25,2.4-.82,4.83-2,6.95.58,1.39,4.12.84,8.21-.25,12.28-1,3.69-2.14,7.37-3.43,10.93a20.29,20.29,0,0,0-.24,13.09A44.39,44.39,0,0,1,915,126.08Z"/><path class="cls-34" d="M719.08,328.82c3.6,7.58,1.85,12-4.75,17.54a36.19,36.19,0,0,0-10.79,16.32c-1.86,5.57-7.45,6-11,9.19-.73.65-1.91-.32-2.62-1-2.7-2.49-6.06-3.36-9.52-3.83-4.19-.57-5.66-3.28-4.26-6.68a48.94,48.94,0,0,1,10.35-15.56,3.29,3.29,0,0,1,3.25-.73,6.91,6.91,0,0,0,3.63.32c1.17-.19-.54-.22-.15-.54-1.63-4.25-.48-8.13,1.43-12a3.26,3.26,0,0,0,.11-2.42c-2.27-5.37.06-10,2.31-14.58,6.49-2.59,9.29,1.7,11.88,6.37,1.77,1.75,4.24,2.27,6.3,3.51C716.9,325.78,718.44,326.86,719.08,328.82Z"/><path class="cls-13" d="M899.07,157c7.15-3.87,15.48-5.37,21.78-10.94,2.87,2.14-.3,3.27-.8,4.85-.42,1.1,0,1.4,1,1,1.27-.71,2.23-2.1,3.89-2s4.19-1.09,4.75,1.22,1.56,5.29-1.43,7.14a28.67,28.67,0,0,1-3.41,2c-2.47,1.09-2.49,2.59-1.22,4.7,1.71,2.85,3.28,5.77,1.55,9.29a2.54,2.54,0,0,0,.49,2.3c4.42,4.23,1.87,9.48,2.25,14.3-2.94-1-.66-3.5-1.59-5.48-4.29,1.19-9,0-13.13,3.44-5.91,5-6.39,4.57-9-3a47.3,47.3,0,0,0,0-11.88c-1.15-3.57-1.9-7.35-5.26-9.73A12,12,0,0,1,899.07,157Z"/><path class="cls-41" d="M985.92,695.89l-.31-.06-.31,0c-1.62-1.08-3.68.24-5.27-1l.06,0c-1.86-1.29-4.21.32-6.06-1l.06,0c-2.59-1.35-5.56.36-8.14-1l-.36-.06-.36,0c-1.92-1.57-5.24,1.25-6.61-2.1.54-1.64,1.87-2,3.38-2.15,5.73,1,11.46,1.46,17.21.16,2.77-.75,5.73.41,8.45-.88a4.17,4.17,0,0,1,2.67-.8,12.69,12.69,0,0,0,7.32-.43c3.22-.45,6.55.22,9.68-1,5.94-.39,11.88-.2,17.81-.14a9.26,9.26,0,0,1,1.55.2c2,.87,4.24.76,6.38,1a9.56,9.56,0,0,1,1.34.29c1.88.75,3.91.4,5.84.78a9.15,9.15,0,0,1,1.26.29c1.82.69,3.77.37,5.64.72a10.26,10.26,0,0,1,1.2.24,2.29,2.29,0,0,0,2.58-.52c.23-.33.47-.64.7-1,1.17-1.69,1-3.69,1.36-5.58a11.81,11.81,0,0,1,.29-1.4c.74-3.24,0-6.54.5-9.78,1.09-2.7.64-5.6,1.1-8.38a32.66,32.66,0,0,1,4.06-9.55,12.42,12.42,0,0,0,2.85-5.44c3.45-10.53,8.78-20.17,14.15-29.79,1-1.18,1.82-2.41,1-4-.78-2.26-1.34-4.57-2.08-6.84-.87-3.45-1.72-6.9-3.68-9.94-1.85-5.34-4.09-10.54-5.39-16.07a46.67,46.67,0,0,0-2.67-8.51,69.08,69.08,0,0,1-3.15-9.08c-.24-2.48-.82-4.83-2.79-6.58a46.83,46.83,0,0,1-5.11-9,13,13,0,0,0-2.86-5.26,6.55,6.55,0,0,1-1.15-2.61c-.31-2.15.7-3.79,2-5.31,1.81-1.72,3.11-3.94,5.2-5.39a1.55,1.55,0,0,0,.69-1.43c-.58-1-1.67-1.79-1.68-3.12.75-3,4.12-2.75,5.82-4.58,1.44,0,1.9-1.3,2.83-2a36.17,36.17,0,0,0,8.18-8l1.71-1.94c2.84-3.58,6.62-6.3,9.27-10.05,2.61-3.1,5.46-6,6.95-9.93a17.23,17.23,0,0,1,5.1-5.09l6.77-5a15.82,15.82,0,0,0,5.2-5,23.27,23.27,0,0,0,6.94-13.94c1.08-2.14,1.41-4.79,4-5.93V452c1.42-.95,2.65-2.15,4.09-3.07l2.92-2.95c1.48-1.79,2.09-4,3.06-6.05l.93-1.93a18.29,18.29,0,0,1,5-5.07l0,0c1.15-1.08,2.76-1.24,4.06-2l-.07,0a13.69,13.69,0,0,1,8.07-.06c7,5.61,13.9,11.37,21.07,16.77,2.79,2.1,3.39,4.89,3.67,7.79.91,9.42,1.54,18.86,2.33,28.29a10.25,10.25,0,0,1-1.26,5.71c-4.07,8-8.27,16-11.85,24.19-1.77,4.08-4.41,5.8-8.51,6.4a127.64,127.64,0,0,0-37.38,11.76c-3.27,1.58-4.21,3-3.18,6.81,3.65,13.46,6.16,27,6.37,41.17.28,19.59.93,39.2,2.39,58.77a71.43,71.43,0,0,1-2.54,26.51c-2.8,9.2-2.25,19-2.15,28.68.06,5.82,1.65,10.86,3.6,16.17,1.68,4.58,1.77,9.74,2.54,14.64a3.89,3.89,0,0,1-2.74,4.67c-4,1.6-7.71,3.56-12.22,4-7.22.67-12.78,5.19-18.21,9.62-1,6-.05,12.12-1.12,18.11-3.33,2.61,2.23,4,.41,6.59-1.86.81-2.8-1.71-4.51-2.28l-2.82,5.27c-1.16,1.62-2.33,2.93-3.5,0,.82-3.26,3.65-5.44,4.63-8.62,1.65-2.36-.09-3.88-1.24-5.72-5.27-8.43-13.76-13.21-21.33-19-6.27-4.81-12.63-9.5-19-14.19-3.06-2.26-6.06-4.73-10.32-4.08a3.26,3.26,0,0,1-3.28-1.85,28.57,28.57,0,0,0-3.93-3.1c-7-6.32-16.43-8.55-23.94-14-.4-.29-.76-.62-1.14-.93-1.21-1.68-3.33-1.23-4.89-2.08l.06,0C989.53,695.7,987.47,697.1,985.92,695.89Z"/><path class="cls-42" d="M920.07,81.06c-1.33-1.05-1.48-3.47-3.85-3.31-.75-.31-1.6-.14-2.34-.48.27.64,1,1,1.15,1.66,1.84,1.19,2.21,3,2,5l-5.74,1c-1.44.72-3.23.8-4.24,2.31L898.2,92.9A6.57,6.57,0,0,0,895,96.12c-3.67,2.67-4.34,7-6,10.81a26.52,26.52,0,0,0,0,11c3.07,10.63,7.79,20.59,12.18,30.69-2.75,1.94-4.49-.28-6.46-1.55-1.18-1.07-2.18-2.38-3.8-2.88-8.49-5.25-16.55-11.14-24.81-16.72q-4.76-3.21-9.61-6.27a6.83,6.83,0,0,0-4.71-1.94c-3.48-.63-5.58,1.35-7.24,4-1.26,2-2.5,3.88-5.14,4.1-5.94.18-11.88,0-17.81.09-4.1,0-8.26.52-11-3.73-.81-1.26-2.61-1.19-4.08-1.46-1.67-.3-3.35-.79-2.63-3.17,4.62-5.46,6.76-12.11,8.84-18.75.62-2,.87-4.21-2.56-3.38-2.57.36-5.5,2.13-7-1.76-.74-1.72-2.2-2.12-3.91-2.36s-2.17-1.27-1.21-2.79c-1.59-3.93,1-8.51-1.93-12.22-1.66-6.12-6.2-11.52-4.71-18.46.34-2.6,1.45-4.53,4.33-4.87.91-.38,2.11-.62,2.48-1.52,3.51-8.64,13.17-10.76,18.45-17.5.28-.36.88-.41,1.38-.46,5.18,1.73,10.36,3.43,15.53,5.2,1.45.5,3,1.43,3.4-1,.73-4.09,4.81-6.46,5.31-10.7.3-2.55,2.07-4.2,4.29-5.36.44-.23,1-.81,1.28-.71,3.38,1,7.26-.06,10.21,1.27s7.58,1.21,8.25,6c.18,1.3,1.47,1.37,2.39,1.18,4.52-1,4.66,2.17,6.31,5.24,3.38,6.28,1.6,13.24,4,19.49.71,1.82,1.43,3.08,3.41,3.8,9.51,3.47,19,7.1,28.43,10.68,2.3.26,1.74-1,1.26-2.31,3.36-1.34,5.85,1.18,8.67,2.07,9.42,3,18.78,6.17,28.16,9.29q0,.73,0,1.45c-1.59,1.53-3.32,1-5.05.33-1.75.43-2.8-.81-4-1.66-1.31.18-2.65.64-3.85-.35C930.29,76.23,925.4,80.22,920.07,81.06Z"/><path class="cls-13" d="M818.06,35a19.16,19.16,0,0,1-9,8.67,16.34,16.34,0,0,0-9.11,9.82c-.5,1.51-1.63,2-3,2.17-3.74-1-5.1.47-4.21,4.17-1.29,4.43,1.81,7.82,2.81,11.7.45,1.74,1.07,3.44,1.61,5.16.6,1.46-.34,2.47-1,3.54-1.17,2.32-2.24,4.68-3.53,6.93-1,1.69-2.11,3.43-4.52,1.88-1.58-1.1-3.27-.6-4.94-.34L781,87.31c-2.29-2.27-5.5-1.36-8.15-2.37-6.6-1.4-13.21-2.76-19.79-4.26-1.28-.29-2.66-1.05-1.25-2.8,1.28-1.48,1.37-3.47,2.16-5.15.3-3.81,2.05-7.2,3.2-10.75a9.23,9.23,0,0,0,.09-6.19c.23-3,.82-6-.32-8.89l0,.07a6.67,6.67,0,0,1,0-5.12l0,.05c1.42-1.83-.16-4.18,1-6.05v.08a39.32,39.32,0,0,0-.05-15c-1.57-3.19-.56-6.6-.83-9.9,8.75,2.09,16.92,5.82,25.16,9.24,10.28,4.27,20.72,8.09,31.14,12C815.08,32.84,816.9,33.37,818.06,35Z"/><path class="cls-43" d="M733,733.93l-2.57,2.94c-1.76.67-2.91,2.25-4.55,3.09l-1.61,1.92a8.87,8.87,0,0,0-4,3.87C715.8,748.81,712.45,753,709,757a50.4,50.4,0,0,0-9.77,9.77c-7.39,3.93-14,9-20.74,13.93A34.93,34.93,0,0,1,666,786.94c-1.45.9-3.07.27-4.59.49-1.47.53-3.07.39-4.56.83-1.55-.29-1.88-1.51-2.16-2.78a7.73,7.73,0,0,0-.86-3.4,12.29,12.29,0,0,1-4.76-9.54,10.06,10.06,0,0,1-.38-1.37c-.49-2.52-2.34-2.79-4.45-2.84s-4.62.44-6.6-1.21a10.75,10.75,0,0,1-1.83-4.43c-.64-3.77.39-7.69-1-11.4-.68-3-2.07-5.79-2.21-8.91-.06-4.88,0-9.76,0-14.64.09-1.42-.3-2.81-.33-4.23.58-3.07,3-2.88,5.3-3a13.44,13.44,0,0,0,4-.77c3.8-.61,7.73.38,11.47-1,3-.53,6.06,0,9.07-.5a21.4,21.4,0,0,1,3.2-.67c2.94-.22,5.89.1,8.82-.3a22.23,22.23,0,0,1,3-.65c2.36-.33,4.78.2,7.09-.49,2.53-1.75.09-3.89.44-5.8-.08-2.2,0-4.4-.08-6.6,0-.49,0-1,0-1.48,0-1.45-.73-2.92.09-4.36,2.16-1.81,4.75-3,6.92-4.8,2.23-.69,4-2.33,6.24-3a4.28,4.28,0,0,1,2.09.12c2,.83,3.18,2.59,4.81,3.84a11.13,11.13,0,0,1,2.28,2.48,11.82,11.82,0,0,0,3.78,4.45,11.87,11.87,0,0,1,2.1,2.61,11.07,11.07,0,0,0,2.94,3.54,10.14,10.14,0,0,1,2.55,3.06,9.81,9.81,0,0,0,3.5,3.73,8.05,8.05,0,0,1,2.4,3,7.83,7.83,0,0,0,2.65,3.31,12.8,12.8,0,0,1,3,3.32c1,2,2.7,3.35,4.27,4.84a4,4,0,0,1,.93,2.65A3.79,3.79,0,0,1,733,733.93Z"/><path class="cls-44" d="M637.12,762.93c1.41,1.06.79,2.6.93,4,2,1.1,4.2.72,6.18.44,3.85-.54,5.71.82,5.86,4.65l-.07-.13c.09.14.26.28.26.42,0,3.64.2,7.15,4.24,8.83.19,1.23.55,2.43.84,3.64.22,2.06.25,4.18,1.75,5.86.83,3.09-2.82.76-3.07,2.54-.71.85-2,1.29-2,2.63,1.35,2.26-.37,5,1.06,7.21l-.06-.12c1.35,2.22-.36,4.89,1,7.11l0-.1c1.34,2.22-.37,4.89,1,7.09l0-.1c1.35,2.22-.38,4.9,1.06,7.11l-.07-.13c1.27,3.83.85,7.08-3.17,9.06-2.71,3.08-4.95,6.68-9,8.28a6.68,6.68,0,0,1-3.51,2.19,26.22,26.22,0,0,0-4.39.2,6.73,6.73,0,0,1-5.9.4l-2,.78c-1.63,1.11-3.33.73-5,.22l-2,.79c-2.88.16-1.94-2.72-3.12-3.91a5.64,5.64,0,0,1-.53-2.06c.21-2.27.49-4.54-.34-6.75-.48-1.7-.17-3.55-1.09-5.16a5.67,5.67,0,0,1-.52-1.94c-.19-1.66,1.07-3.41-.37-5a2.76,2.76,0,0,1-.82-2.37,10,10,0,0,0-.35-6.06c-.47-2.1,0-4.33-.88-6.37-.58-2.22-.06-4.65-1.34-6.73-.45-1.17-.44-2.64-2-3a15.53,15.53,0,0,0-5.63.22,9.11,9.11,0,0,1-1.25.31c-1.67.33-3.4.13-5,.7a9.36,9.36,0,0,1-1.23.32,11,11,0,0,0-4.24,1.25,2.23,2.23,0,0,1-2.93-.92c-1.12-1.58,0-3.61-1-5.2a2.29,2.29,0,0,1-1-2.17,8.2,8.2,0,0,0-.46-5.76,3.6,3.6,0,0,1,1.36-3.9c2.22-1.28,4.78-.43,7.09-1.12,1.65-.39,3.38.69,5-.28s3-2,4.58-2.86a3.68,3.68,0,0,0,1.74-5c-1.08-2.62-1.3-5.39-1.78-8.12-.21-1.61-.11-3.26-.83-4.78-.41-1.37-.82-2.73-1.12-4.13-.28-1.63-.13-3.33-.87-4.87-.41-1.37-.83-2.75-1.13-4.15-.25-1.65-.22-3.34-.61-5,.06-1.37.85-2.79-.23-4.1l.06.11a5.4,5.4,0,0,1,.18-5.17c5.49-4,11.89-6.24,17.78-9.46,1.42-.62,2.83-1.28,4.27-1.89a4.64,4.64,0,0,1,1.25-.27c1.24,0,2.35.71,3.61.62.43-.06.85-.08,1.28-.1,2.65-.49,3.75,1.35,4.85,3.2A3.55,3.55,0,0,1,634,727a55.52,55.52,0,0,0,.1,15.9l2,7.84C637.5,754.73,635.53,759,637.12,762.93Z"/><path class="cls-45" d="M734.25,731.35a3.6,3.6,0,0,0-1.36-2.53c-1-1.93-2.8-3.24-4.07-5l-2.74-2.62a5.64,5.64,0,0,0-2.92-3.14,3.81,3.81,0,0,0-1.85-3.12c-1.28-1.36-2.25-3-4.08-3.81-.07-1.45-1.17-2.14-2.15-2.93a19.11,19.11,0,0,0-3.29-4.4l-1.85-2c-1-2-3-3.15-4-5.15l-1.91-1.48c-.67-1.71-2.14-2.79-3.24-4.16a2.92,2.92,0,0,1,.18-2.59,18.82,18.82,0,0,1,1-1.74c1-1.57.63-3.43,1.12-5.11a9.64,9.64,0,0,0,.48-3.53c-.11-3.63.37-7.28-.54-10.87-.1-1.3,0-2.55,1.12-3.44,1.9-2.34,3.33-5.64,7.39-3.5a3.85,3.85,0,0,0,1.9.09c3.09-.75,1.9-3.29,2.17-5.22a13.07,13.07,0,0,0-.45-4.65,9.37,9.37,0,0,1-.33-1.35c-.3-2.29-.07-4.65-.92-6.86-.33-1.6-.16-3.27-.71-4.85a6.24,6.24,0,0,1-.18-1.45c.13-1.69.84-2.82,2.73-2.81,7.15,3.22,12.7,8.78,19,13.21,3.06,2.15,6.42,4.07,8.74,7.18a3.15,3.15,0,0,0,.43.85c1.54,4.75-.39,9.76,1.08,14.51l-.05-.1c1.26,1.51-.18,3.57,1,5.09l0-.09c1.26,1.51-.19,3.58,1,5.09l-.05-.09c1.26,1.51-.18,3.57,1,5.09l0-.09c1.25,1.51-.18,3.57,1,5.09l0-.09c1.23,1.62-.13,3.74,1.06,5.37,2.2,1.62-.77,4,.83,5.7,1.39,1.05,0,2.91,1.16,4l0-.09c1.26,1.51-.18,3.57,1,5.09l0-.09a6.18,6.18,0,0,1-.8,4.87l-.14,1.12c-1.23,3.75-3.9,6.42-6.69,9a8.46,8.46,0,0,0-4.13,3.87c-2.53.41-2.87,3.61-5.28,4.17C735.21,732.28,734.71,731.87,734.25,731.35Z"/><path class="cls-46" d="M985.14,562.94c5.56,2,10-1.68,14.86-3.05,3.41-.83,6.69-2.11,10.1-3a60.31,60.31,0,0,0,14.86-6.06,39.2,39.2,0,0,0,6-2.67,123.32,123.32,0,0,1,15.1-9.06c1.53-1.54,2.26-.28,3,.86l1,1.82c1.22,1.61,1.84,3.58,3,5.2l5,8.83a18.73,18.73,0,0,1,3,7.25l3,8.77a81.72,81.72,0,0,0,3,9.25c1.47,4.93,3.83,9.59,4.69,14.72,2.16,3.5,2.59,7.65,4.31,11.31l1.84,5.7c1.53,2,0,3.47-.87,5-4.87,9.83-10.44,19.33-14,29.79-1.15,1.68-1.84,3.63-3.05,5.28l-4,9c-.69,3.2-.57,6.53-1.46,9.7-.3,3.43.62,6.93-.53,10.31l0-.09c-.83,2.32-.61,4.94-2,7.08l0-.07c-1,1.59-2.36,2.06-4.06,1l.1.06c-2.21-1.39-4.89.34-7.1-1.05l.1.05c-2.21-1.39-4.89.33-7.1-1.05l.1.05c-2.21-1.38-4.89.34-7.1-1.05l.1.05c-6.44-1.15-12.94-.25-19.4-.5-3.26,1.67-6.79.71-10.19,1a9.21,9.21,0,0,1-7.39.5l-2.09.86c-2.51,1.3-5.21.27-7.8.62-6.06,1.5-12.11.85-18.16,0-4.49-.48-1.75-3.95-2.48-6,1.61-3.67,1.25-7.39.25-11.13-.81-1.34.51-3.2-1.07-4.36L943,626.12c-.71-1.72-1.15-3.55-1.93-5.25l-1.94-2.77c-2.71-2-2.77-5.32-4.2-8a11.19,11.19,0,0,0-1.95-4.78,17.63,17.63,0,0,1-2.08-4.27A15.68,15.68,0,0,0,929,596c-1-2.06-1.7-4.21-2.69-6.25-.84-1.74-1.14-3.41.74-4.74l1.45-.11c2.22-.65,4.55-.94,6.67-2l2.69-1.13c1.75-.61,3.53-1.17,5.26-1.84l2.7-1.13c1.77-.67,3.59-1.18,5.34-1.9l2.63-1.1c1.78-.65,3.61-1.17,5.36-1.9L972,568.88a28,28,0,0,0,4.26-1.93l1.71-1.07C980.42,565,982.71,563.82,985.14,562.94Z"/><path class="cls-47" d="M927.08,585c-1.15,4.21,2.91,7,3,10.81.73,1.73,1.17,3.56,1.95,5.27l1.94,3.53c.85,1.77,1.22,3.73,2.08,5.51a25.59,25.59,0,0,1,3.09,7.95c-4,4.29-9.91,4.6-14.94,6.61C909,630.79,893.46,636.31,878,642q-13.33,5-26.67,9.87c-1.86.74-3.93.59-5.77,1.41-2.48.55-5.16-.74-7.54.79-1.8,1.39-3.92.63-5.89.85-1.1-.55-2.49-.25-3.46-1.18,0-2-.56-3.91-.76-5.88-.34-4.35-3.7.18-4.9-1.66-1.31-2.34.33-5.1-1-7.43q-.06-.49-.07-1c-1-1.53.28-3.48-.92-5l0,.09c-1.22-1.51.22-3.58-1-5.08l0,.1c-1.29-1.87.3-4.24-1-6.11l0,.1c-1.34-2.14.41-4.83-1.23-6.92a5.53,5.53,0,0,1-.12-3.07c.69-1.79,2.31-2.3,3.92-2.74,7.23-1.94,14.4-4.17,21.76-5.61,6.12-1.2,6.13-1.16,5.28-7.13,1.3-2.36,3.46-1.94,5.55-1.73a4.08,4.08,0,0,1,2.58,1.38c3,4.72,6.56,3,10.22,1,5.33-2.86,9.37-7.35,14-11.07,1.12-.9,1.83-2.06,1.21-3.48-2.33-5.31.48-8.84,4-12.16,1.5-1,2.83-2,1.11-3.87a4,4,0,0,1-.74-1.85c.37-1.9,2-2.89,3-4.33a16.07,16.07,0,0,1,4-2.54,30.1,30.1,0,0,0,4.3-2,22.87,22.87,0,0,1,6-2c2.47-.52,4.85-.76,6.12,2.16.66,2,1.2,4.14,2.92,5.63,1.3,2.5,3.67,4.1,5.29,6.33l3.75,6.88c1,2.37,2,4.77,3.1,7.09Z"/><path class="cls-48" d="M705.89,571c2.6-5.82-1.67-9.23-4.6-13.11-1.52-4.07-.95-4.86,4.65-6.45-2.73-.67-5.53-4.34-5.82-8.07a11.72,11.72,0,0,0-1.33-5.22c-.64-1.88-1.19-3.77-.1-5.68,4.35-2.82,6.94-2.44,11.38,1.69,6.6,3.35,12.07.75,16.91-3.6a127,127,0,0,0,12.57-12.67c3-3.57,5.23-7.8,7.56-11.87,1.16-2,2.12-4.1,4.17-5.39,3.87-2,7.81-1.49,11.78-.38,4,3.23,8.69,1.15,13,1.63,1.48-.32,2.11.79,2.86,1.7a64.41,64.41,0,0,1,3.48,10.58c.37,1.55.39,3.46,2.9,2.7,1.79-.38,3.67-.18,5.4-.89a19.58,19.58,0,0,1,2.7-.55c3.32-.93,6.11-3.07,9.37-4.15a5.61,5.61,0,0,1,3.45.38,7.75,7.75,0,0,1,1.24.63c1.42,1.15,3.1,1.91,4.53,3,2.9,2.65,2.58,6.65,4.08,9.91,3.55,7.71,9.4,13.85,13.83,20.95a10.15,10.15,0,0,0,3.21,4.36c1.74,1.81,3.64,3.51,4.18,6.14.55,4.38-.43,8.84.68,13.18a16.2,16.2,0,0,1,.7,3.58c0,1.53-.6,3.07.13,4.58.2.39.37.8.55,1.2,1.09,2.39,3.24,3.72,5.21,5.22a5.12,5.12,0,0,1,1.28,1.77c.83,2.74.28,4.94-2.46,6.26a6.46,6.46,0,0,1-1.21.7c-3.1,1.72-4-1.92-6.1-2.52-2.29-.37-4.6-.56-6.89-.75-5.07-.42-9.08,2.21-10.5,7.11-1,3.62-4.42,6.91-1.95,11.16.14,2.74-2.39,1.88-3.66,2.73-12.5,3.69-21.69,11.6-29.27,22-2,2.67-5.89,3.9-8.92,5.79-1,1.75-3,.2-4.22,1.16-2.24,1.92-4.35,2.92-5.78-.83-1.66-1.64-2.25.5-3.32.95-.84.77-1.7,1.52-1.56,2.82-.49.84-1,1.68-2.11,1.75-5.42-2.86-7.6-8.25-9.28-13.45-1.82-5.64-2.24-11.7-8-15.27-1.22-.76-2.38-2.33-1.73-3.84,1.39-3.22-.68-4.51-2.78-5.94a35,35,0,0,0-3.6-2.65c-5.77-2.92-7.34-8.64-9.07-14a9.41,9.41,0,0,0-3.16-4.76c-3.84-3.16-8-6-11.73-9.22C707.25,574.17,705.5,573.22,705.89,571Z"/><path class="cls-49" d="M806,512.92l-2.75-1c-3.17,1.31-6.55,2.24-9.06,4.79l-3.18.19c-1.75,1.42-4.16-.58-5.85,1.13-2.25,1.26-3.55,1.87-3.89-1.95-.36-4-2.08-7.93-3.21-11.88-1.14-2.76-1.75-5.7-3-8.41l-.95-2.72c-.85-1.66-1.11-3.56-2-5.19l0,.06c-.88-1.61-1.12-3.47-2-5.06l0,.06c-1.41-3.82-3.59-7.29-5-11.09l-.84-1.88c-1.12-1.63-.33-2.28,1.28-2.52.91-.13,2,.28,2.63-.77l1-.65a9.26,9.26,0,0,0,7.27-.54c2.22-.34,4.61.57,6.68-.9,2.15-.55,4.47.44,6.54-.75s4.48.52,6.42-1.06a2,2,0,0,1,2-.79c1.68.52,3.36,1,5-.17a2.14,2.14,0,0,1,2.06-.81c1.67.48,3.34,1,4.94-.2a2.16,2.16,0,0,1,2.07-.79,9.23,9.23,0,0,0,7.27-.54c2.25-.33,4.66.55,6.75-.92,2.26-.55,4.66.48,6.87-.62,4.52-1.08,8.09-4.57,12.85-5,1.68-.8,3.58-1.06,5.2-2H851c3.93,6,3.94,6.35-1.54,9.22-2.11,1.11-2.44,2.19-1.33,4.16s1.82,3.79,2.71,5.69c1.25,1.45,1.28,3.42,2.18,5l0-.06c1,1.6,1.25,3.47,2,5.15,0,3.25,1.61,4.9,4.89,4.88,1.79.72,1.71,2.35,1.87,3.86a2.79,2.79,0,0,1-1.21,1.83,14.71,14.71,0,0,0-5.57,3.23c-9,3.17-18,6.56-27.14,9.46a6.42,6.42,0,0,0-5.06,1.85,22.17,22.17,0,0,1-9,4c-1.7.16-3.38.39-4.68,1.68C808.22,511.79,806.85,512,806,512.92Z"/><path class="cls-50" d="M709.27,628.9c2.26-.23,2.66,1.87,3.8,3,1.35,1.47-.32,3.55,1,5l-.07-.13c1,1.48.32,3.14.53,4.7,1.28,2.66.55,5.69,1.53,8.41l0-.09c1,1.64.3,3.45.51,5.17-.81,2.11,2,5.54-2.35,6.37a31,31,0,0,0-12.88,0,33.2,33.2,0,0,1-5.18-.25c-3.5-1.3-7.16-.5-10.74-.8-1.92,0-3.66-1-5.6-.93-2.4.06-4.82-.27-7.2.33-2.36.36-4.81,1.3-6.72-1.08-.08-.41,0-.71.22-.66.65.16,1.13,0,.48.1-3.91.42-7.9-.16-11.75,1-1.62.09-3.24.18-4-1.71.32-.44.5-1.28,1.29-.48-.68-.88-1.33-.1-1.94.08-2.37.71-4.79.36-7.19.37-2.1-.16-4.07-1.25-6.25-.8-3-.37-6.28-.23-8.29-3.23A5,5,0,0,1,629,650a2.24,2.24,0,0,0-.78-2.12c-1.56-1.39.13-3.56-1.19-5l.06.11c-1.41-2.21.31-4.89-1.05-7.11l.05.1c-1.35-1.86.26-4.23-1.05-6.09l.06.1c-1.4-2.21.31-4.88-1-7.1l0,.09c-1.34-1.86.25-4.22-1-6.09l0,.09c-1.34-1.86.26-4.23-1-6.1l0,.09A5.71,5.71,0,0,1,622,606a2.26,2.26,0,0,0-.77-2.14c-1.12-3.44,1.06-2.38,2.74-2,2,0,3.58-1.35,5.33-2.11s4,.36,5.82-.83l-.1,0c2.21-1.41,4.89.31,7.11-1.05L642,598c2.12-1.43,4.84.39,6.92-1.28,2-.8,4.24.39,6.18-.78l-.1,0c2.06-1.24,4.4,0,6.52-.77a2.76,2.76,0,0,1,3.43,1.7c9.91,4.92,17.53,13,26.61,19.1,5,3.33,9.82,6.86,14.73,10.3A6.17,6.17,0,0,0,709.27,628.9Z"/><path class="cls-51" d="M588.12,791l.8,1.92c1.4,1.58-.07,3.78,1.15,5.4.64.75,1.28.81,1.93,0,1.32-1.87,3.64,0,5.11-1.37l-.1,0c1.87-1.34,4.25.27,6.12-1.06L603,796c2.24-1.4,4.94.31,7.19-1.05,3.72-.07,2.63,2.16,2,4.17,3,2.06,0,5.77,2.26,8,.48,2.32-.63,4.87,1,7,0,1.61.45,3.26-.32,4.82a1.94,1.94,0,0,0,.8,1.92c1.08,1.65.73,3.36.21,5.07l.5.9c1.81,1.62.51,3.77,1,5.62a9.85,9.85,0,0,1,.57,7.43l.59.94c.89,2.44,2.44,5.13-2.06,5.58a10.17,10.17,0,0,1-7.53.58l-1.09.61c-1.83,1.46-3.84.76-5.82.48l-1.19.64a1.92,1.92,0,0,1-3,0l-1-2.69c-1.32-1.9.28-4.29-1-6.19l.06.11c-.85-1.46-.15-4.09-3-4-1-2.09-3.05-3-5-3.93-1-.89-2.24-1.58-2.83-2.9l-2.15-1.05c-1-.91-2.23-1.57-2.8-2.89-4.69-2.36-8.45-5.93-12.12-9.54a15.7,15.7,0,0,0-4-2.72,6.81,6.81,0,0,1-3-2.82L559.07,809c-1-.87-2.2-1.53-2.76-2.81A44.7,44.7,0,0,0,547,800.9a22.94,22.94,0,0,1-3-2l.06,0c-1.19-.56-2-1.76-3.32-2.08L539,795a11.09,11.09,0,0,0-3.21-2.2L534.05,791c-1.08-.79-1.93-1.92-3.32-2.26L529.05,787a11.36,11.36,0,0,0-3.21-2.21L520,780c-.89-.86-2.25-1.59-.84-3.08a11.64,11.64,0,0,0,4.89-5.8,6.46,6.46,0,0,1,2.76-3l1-2.13c1-.93,1.64-2.22,3-2.81.94-2.78,4-4.28,4.43-7.39,1.37-.6,2.13-1.87,3.11-2.89a12,12,0,0,0,4.78-5.83,6.74,6.74,0,0,1,2.8-3c1.3-1.58,2.25-4,5-2.14a8,8,0,0,1,3.2,2.24,12.49,12.49,0,0,0,5.81,4.72c1.2.51,2,1.61,3.29,2,6.63-1.18,11.88-5.49,17.93-8,2.79-1.22,6.06.29,8.75-1.53,1.75.28,3.67-.72,5.26.7,2,1.9,2.7-.32,3.82-1.2a3,3,0,0,1,1.94.64c1.38,1.24.06,3.22,1.22,4.52a5.84,5.84,0,0,1,.94,3.81c.88,1.67.08,3.67,1.06,5.32a5.17,5.17,0,0,1,.95,3.7c.87,1.64,0,3.62,1.06,5.22.89,3.18,1.75,6.36,2.67,9.54a2.81,2.81,0,0,1-1.31,3.41c-2.7,1.15-4.64,3.68-7.69,4.11-1.35,0-2.51-1.4-4-.54-2.35,1.63-5.2-.06-7.62,1.15l-.59,3C589.45,786.73,588.46,788.88,588.12,791Z"/><path class="cls-52" d="M895.23,145.9a11.34,11.34,0,0,0,6,2.68c1.68,3.8-1.53,5.76-3.14,8.33l-2.69,4c-2.05,2.38-4.61,4.3-6.28,7l0,0c-1.93,2.1-2.37,4.91-3.54,7.38.08,1.83-.34,3.68.28,5.49.17,1.46.43,2.93-.67,4.18-1.62,2.13.24,4.82-1.12,7,.38,4.57-2,8.57-2.69,12.92-2.26,2.21-4.9,1.73-7.56,1-1.42-1.67-2.07-3.7-2.92-5.67-2.34-5.41-4.28-5.78-8.53-1.86-.6.56-1.28,1-1.93,1.54-2,1.19-4.44-.33-6.42,1l.11-.05c-4.33.95-8.79,1.05-13.12,2l.1-.06c-1.83,1.4-4.36-.55-6.1,1.27l-1,.66c-2-.55-4.05-1-6,.33l-10.82,3.74c-4.25,1.7-7.59.91-9.77-2.32a3.06,3.06,0,0,1,.51-2.68c1.31-1.36.61-3.28,1.3-4.82.49-1.23,1.34-2.27,1.73-3.54a22.49,22.49,0,0,1,1.25-2.35,10.62,10.62,0,0,0,1.72-5c.71-2.74.46-5.68,1.73-8.29a4.77,4.77,0,0,0,.17-5,42.17,42.17,0,0,1-2-6.91,11.13,11.13,0,0,1,.18-4.34,7.24,7.24,0,0,1,.83-1.79c.16-.41.68-.81.26-1.28-.15-.17-.63,0-1,.06a3.83,3.83,0,0,1-1.3-.07,3,3,0,0,1-1.8-2.93,6.7,6.7,0,0,1,.13-1.57c.88-3.73.28-7.51.44-11.26,1.15-4.2.11-8.4,0-12.61.5-5.71.5-5.6,6.16-5.75,7.77-.21,15.57.68,23.32-.48,2.21-1.9,2.72-5,5.1-6.92,2-1.6,3.55-2,5.69-1.16,1.64.94,3.56,1.18,5.21,2.1q14.43,9.67,28.85,19.36c2.05,1.39,3.86,3.16,6.33,3.87A6.5,6.5,0,0,0,895.23,145.9Z"/><path class="cls-53" d="M716,251.89c.19-2.49,2.8-3.13,3.79-5a16,16,0,0,0,5.32-4.87c3.85-5.74,4.75-12.75,8.1-18.73,4.52-8.07,7.21-16.95,10.84-25.41,1.63-2.61,3.31-1.86,5-.09a3.55,3.55,0,0,0,2.17-.37,18.44,18.44,0,0,1,5.62-1.09,4.32,4.32,0,0,1,1.89.57,12.54,12.54,0,0,1,3.18,2.42c3.39,2.74,6.36,6,9.76,8.69,2.57,2.55,5.18,1.76,7.79.07,5.23-.56,8,3.19,11,6.39.73,1.07,0,2.32.42,3.42L784.74,229c-1.68,1.21-1.88,3.23-2.65,4.93l0-.07c-1,1.93-.68,3.91-.23,5.89l.23,1c-.5,1-1.65,1.49-2,2.59-.73.84-1.43,1.74-2.74,1.56-4.54.52-9.11,1.49-13.42-1l-5-3.4c-.74-.82-1.3-2.15-2.66-1.69-1,.33-.76,1.28-.29,2.05l-6.76,20c-1.1,1.43-2.39,2.1-4.12,1-2.55-2.39-6.4-.83-9-3-2.67-.41-5.14-2.69-8.05-.9-1,.84-1.93-.37-2.92-.13-1.59-.92-3.48-1.1-5.05-2.07l-4-1A2.25,2.25,0,0,1,716,251.89Z"/><path class="cls-13" d="M619,723a121.23,121.23,0,0,1-17.56,9c-.86.18-1.6.71-2.47.85-1.24-4.55-2.71-9.05-3-13.81-1.2-1.51.47-3.69-1.17-5.1-2.45-3.57-6.84-4.6-9.82-7.48-.27-1.14-1.88-1.28-1.91-2.59,5.51-8.65,11-17.32,16.55-25.93,1.58-2.44,3-4.64.89-7.57-1.33-1.87.37-3.8.58-5.72,1.43-2.17,3.67-1.68,4.41-.13,2.72,5.66,8.6,6.54,13.14,9.43,1.33,1.44,1.52,3.44,2.51,5.06a5.3,5.3,0,0,1,.66,2.68c-.25,1.54-.57,3.08.41,4.52a5,5,0,0,1,.57,2.6c0,1.34-1.08,2.75.28,4a3.13,3.13,0,0,1,.72,3,10.47,10.47,0,0,1-2.56,3.85c-.4.52-.8,1-1.16,1.58-.82,1.86-1.2,3.7-.06,5.57a3.3,3.3,0,0,1,.91,3c-.18,1.69-1.25,3.36-.08,5.07a2.48,2.48,0,0,1,1,2.45C621.49,719.47,621.19,721.69,619,723Z"/><path class="cls-54" d="M588.11,926.09c1.48-.81,2.17-2.76,4.49-3.25a6.76,6.76,0,0,1-3.56,4.06C588,927.45,588,926.89,588.11,926.09Z"/><path class="cls-55" d="M618.09,674.62a61.64,61.64,0,0,0-6.41-2.42c-2.64-.69-4.79-1.29-5.29-4.71-.36-2.5-2.43-3.9-5.27-2.85-2.52-4.12-4-8.8-7.08-12.63a32.25,32.25,0,0,1,1.06-5.13l0,.09c1.38-.75,2.73-1,4,.24,1,1.2,2.34.6,3.54.75,1.76.5,3.59.71,5.33,1.3,1-.5,1.27-3.11,3.13-1.07,1,1.22,2.41.58,3.64.78,1.77.6,3.78.5,5.3,1.81,1.86.67,3.68,1.53,5.75,1.16.91.95,2.63-.27,3.32,1.25,2.48.73,4.84,2,7.56,1.73,2.37.38,4.57,1.57,7,1.5,2.43.35,5-.74,7.32.66a5,5,0,0,0,4.2.72c3.61-.47,7.22-.94,10.79.29,2.1,1.64,4.12.81,6.15-.17,2.53,1.09,5.2.2,7.78.51,1.86.2,3.58,1.2,5.52,1,3.6,0,7.22-.27,10.72.92,1.72.15,3.44,0,5.17.08,2.14.18,5.39-.81,3.61,3.46a2.93,2.93,0,0,0-.77,3.13c.85,3.68.21,7.41.39,11.11-.26,1.38-.56,2.76-.95,4.12-.34,1.88.58,3.9-.61,5.7l-.9.84c-1,1.28-2.71,1.38-4,2.15-1.9.95-3.15,3.22-5.71,2.85a2.56,2.56,0,0,1-1.14-1,4.12,4.12,0,0,1-.46-1.37c-.72-6.72-.72-6.72-7.51-7.34a11,11,0,0,0-3.87-.68c-3.64,0-7.28,0-10.92,0a10.15,10.15,0,0,1-3.34-.25c-3.13-1.23-6.47-.52-9.67-1a12.13,12.13,0,0,0-3.94-.72c-3.26-.1-6.53.15-9.78-.22-1.28-.22-2.48-.86-3.83-.78-1.77,0-3.54,0-5.3,0-4.06-.73-8.12-1.48-11.85-3.38C620,676,618.79,675.61,618.09,674.62Z"/><path class="cls-13" d="M790.27,168l.44-1.09c1.68-3.91.72-7.93.53-11.92,1-3-.22-5.12-2.23-7.49-2.57-3-6.64-6.18-2.68-11l-1.3-.57c3.17-3.62,7.42-5.86,11.22-8.66a30.46,30.46,0,0,0,6.68-6.41c.66.12-.13-.1.47.15,2.88,1.23,7-1.26,8.75,1.49,1.57,2.42.29,6.08.41,9.19a2.53,2.53,0,0,0,.55,1.32c.73,3.93,1.46,7.87,0,11.8s.34,8.31-1,12.34a1.19,1.19,0,0,1,0,.66c-.95,2.24-.27,2.91,2,2.05l-.07,0c2.1-.76,2.88-.17,2.07,2l-.88,1a4.93,4.93,0,0,0-.15,5l2,6.93a6.52,6.52,0,0,1,0,5.16c-2,2.65,0,6.26-2.09,8.9-.83,1.61-1.16,3.42-1.94,5.05L812,195.9a34.17,34.17,0,0,1-2.4,3.09,1.4,1.4,0,0,1-.69,1c-3.21,1.5-5.81,6-10.12,2-.47-.43-1.48-.88-1.43-1.15,1.31-6.56-5.26-7.82-7.87-11.71-1.11-1.65-3.73-2.68-1.68-5.28,1.35-1.5.61-3.21.52-4.86,1.1-2.27,0-5,1.63-7.19C791,170.63,790.53,169.3,790.27,168Z"/><path class="cls-56" d="M577,411a5,5,0,0,1,5-.68c4.35,2.52,8.71,5,13,7.58,1.06.63,2,.94,3.12.22,1.8,2.3,4.44,3.41,6.87,4.81,1.68,1,2.05,2.36,1,4.06-4.82,8.69-9.69,17.36-14.45,26.09-1.64,3-3.3,4.58-7.09,2.82-4.77-2.21-4.38,2.82-6,5-1.86,2.42-1.51,4.75,1.23,5.6,4,1.26,2.71,3.21,1.42,5.54-2.81,5.08-5.57,10.19-8.36,15.29-1,2.27-3.18.13-4.49,1.22a2.51,2.51,0,0,0-.25,3.38c2.54,4.19-2.19,6-3,9.06-.54.59-.89,1.6-2,1l.08,0c-.6-.54-1.61-.23-2.08-1-4.35-2.63-9.24-4.39-13-8,1.63-5.61,5-10.35,8-15.24,2.11-3.46,2.71-5.46-1.77-7.53-7.55-3.5-7.6-3.9-3.61-11.24,7.44-13.68,15.14-27.22,22.71-40.83C574.65,415.69,575.81,413.31,577,411Z"/><path class="cls-57" d="M665.1,681.9l3.05.09c3.78.94,7.62.15,11.43.46,1.36.35,2.73.65,4.1.95,7.33,0,7.33,0,8.13,9.36l.53,1c-1.94,2.23-3.87,4.49-7.28,4.15-1.16,1.69.06,2.82,1,4l0,1c-1,2.6-.23,5.3-.46,7.94-.35,2.13,2.13,4.07.41,6.29-3,.75-6.18-.55-9.14.76l-1.86.89a21,21,0,0,0-10.12.1l-1.91.89c-3.78-.55-7.55-1.15-11.24.49-3.35.16-6.7,0-10,.09-1.35.3-2.71.59-4.05.95-3.52.46-7.12-.6-10.61.56l.11,0c-1.65.91-2.17-3-4.1-1l.09-.05c-2.7.18-2.73.12-2.29-3.89l-.67-2.19c-1-1.56-.61-3.2-.26-4.84a3.37,3.37,0,0,0-.75-3.14c-.71-2.32-1.16-4.64.26-6.88l.71-.7c1-1,2.82-1.36,2.78-3.27a3.32,3.32,0,0,0-.75-3.15c-.94-1.23-.61-2.55-.24-3.86a2,2,0,0,0-.51-2.09c-1.55-1.48-.69-3.23-.52-4.89a2,2,0,0,0-.64-2.1c-.73-1.58-1.88-3.26.95-4l10.92,3c1.87,1.05,3.93.15,5.86.57,1.25.36,2.51.64,3.78.9,3,0,6,0,8.94.05,1.62.51,3.34.45,5,.94C658.78,681.7,662,680.83,665.1,681.9Z"/><path class="cls-13" d="M848,589.15l2.44,1.38c.09-2.65-1.64-4.27-2.67-6.11-2.8-5-2.37-6.51,2.8-8.66,2-.82,3.85-2,6.11-1.93,3.38-1.2,7,.47,10.39-1,6-3.39,11.92-7,18.91-8a.84.84,0,0,1,1.37-.07l.79.85c1.9,2.29.86,4.05-1,5.67-3.09,3.52-6.35,7-2.85,12.07a1.79,1.79,0,0,1-.64,2.58c-6.49,5-11.76,11.57-20,14.26-3.27,1.07-5.85,2.06-6.85-2.51-.14-.65-1.14-1.1-1.75-1.65-2-.4-4.28-2.17-5.83.85,4.17,6.27,3.86,6.8-3.52,8a184.12,184.12,0,0,0-27.58,7.15l-.07-1.15c-.6-1.13-.94-2.45-2.29-3-1.81-2.45-3.66-4.82,0-7.34.92-.63,1-2,1.3-3.14,1.53-7,6.07-10,13-8.92,2.3.35,4.63.47,6.94.7,1.16.32,1.29,1.21,1.52,2.24.7,3.18,2.06,2.3,3.46.43l-.06,0C844.38,591.85,845.79,589.67,848,589.15Z"/><path class="cls-58" d="M542.56,439.14c1.54,9.76,1.47,9.88-5.16,9.58C538.11,445.33,540.72,443.14,542.56,439.14Z"/><path class="cls-59" d="M971.85,531c2.44.24,4.09,1.49,4,4.08s-1.83,3.85-4.32,3.74a3.49,3.49,0,0,1-3.71-3.77C967.78,532.33,969.3,531.17,971.85,531Z"/><path class="cls-60" d="M712.88,612.41l5.23-8.1C720.82,611.17,719.62,613.23,712.88,612.41Z"/><path class="cls-61" d="M780,182.76c-.08,2.91-1.09,4.82-3.68,5-2.89.17-4.2-1.76-4.18-4.45,0-2.44,1.22-4.22,3.87-4.27S779.66,180.89,780,182.76Z"/><path id="One" class="cls-62" d="M813.22,507.94a27.27,27.27,0,0,0,8.84-3.63c1.35-1.61,3.53-1.41,5.18-2.37,5.88-2,11.76-4.06,17.65-6,3.42-1.16,6.87-2.23,10.3-3.35,1.22-1.52,3.19-1.7,4.75-2.62l1.15-.81c1.29-.87,2.05.29,3,.79,1.36,1.1,1.76,2.54,2.1,4.26a37,37,0,0,0,9,18.54c3,3.24,4.49,7.3,6.05,11.32a97.78,97.78,0,0,0,8.92,17.18c3.63,5.68,8.14,10,14.95,11.45,1.48,1.05,1.48,1.05-1.12,2.26l-6,2a22.53,22.53,0,0,0-4.19,2l-4,2.27c-.85,1.86-3.21,2.32-4,4.28-6.52,2.74-12.89,5.85-19.41,8.61-2.92.6-6-.2-8.84.91-1.11.33-2.24.58-3.35.94-6.84,2.21-7.33,3.44-4,9.77.84,1.58,2.22,3.29.83,5-1.23,1.54-2.69.36-4-.43-2-.81-1.1-3.07-2.19-4.33l-.92-.78c-2.13-2-4.41-3.82-6-6.29l.05.08a6.17,6.17,0,0,1-.08-5.11l-1-3c-1.34-4.95.5-10.1-1-15l-4-4.63c-.75-1.68-2.28-2.82-3.06-4.48-5.43-7-11-13.95-14.82-22-1.4-2.92-.33-6.73-3.37-9-.82-1.46-2.5-1.69-3.7-2.62l-1.15-.11c-.16-1.53,1.21-1.79,2.06-2.48C809.28,508.61,811.58,509,813.22,507.94Z"/></g></g></svg>